<mxfile host="65bd71144e">
    <diagram id="3qlZC5nvAdFwtifRBBA2" name="HttpModule">
        <mxGraphModel dx="1370" dy="522" grid="1" gridSize="10" guides="1" tooltips="1" connect="1" arrows="1" fold="1" page="1" pageScale="1" pageWidth="4681" pageHeight="3300" math="0" shadow="0">
            <root>
                <mxCell id="0"/>
                <mxCell id="1" parent="0"/>
                <mxCell id="hWZM5mHgQjfYqJk784ga-1" value="HttpClient" style="swimlane;fontStyle=0;align=center;verticalAlign=top;childLayout=stackLayout;horizontal=1;startSize=30;horizontalStack=0;resizeParent=1;resizeParentMax=0;resizeLast=0;collapsible=0;marginBottom=0;html=1;" parent="1" vertex="1">
                    <mxGeometry x="80" y="80" width="180" height="238" as="geometry"/>
                </mxCell>
                <mxCell id="T1dOEV17NrI4P8K_GfUH-1" value="- endpoint" style="text;html=1;strokeColor=none;fillColor=none;align=left;verticalAlign=middle;spacingLeft=4;spacingRight=4;overflow=hidden;rotatable=0;points=[[0,0.5],[1,0.5]];portConstraint=eastwest;" parent="hWZM5mHgQjfYqJk784ga-1" vertex="1">
                    <mxGeometry y="30" width="180" height="20" as="geometry"/>
                </mxCell>
                <mxCell id="T1dOEV17NrI4P8K_GfUH-2" value="- baseUrl" style="text;html=1;strokeColor=none;fillColor=none;align=left;verticalAlign=middle;spacingLeft=4;spacingRight=4;overflow=hidden;rotatable=0;points=[[0,0.5],[1,0.5]];portConstraint=eastwest;" parent="hWZM5mHgQjfYqJk784ga-1" vertex="1">
                    <mxGeometry y="50" width="180" height="20" as="geometry"/>
                </mxCell>
                <mxCell id="T1dOEV17NrI4P8K_GfUH-3" value="- accessToken" style="text;html=1;strokeColor=none;fillColor=none;align=left;verticalAlign=middle;spacingLeft=4;spacingRight=4;overflow=hidden;rotatable=0;points=[[0,0.5],[1,0.5]];portConstraint=eastwest;" parent="hWZM5mHgQjfYqJk784ga-1" vertex="1">
                    <mxGeometry y="70" width="180" height="20" as="geometry"/>
                </mxCell>
                <mxCell id="hWZM5mHgQjfYqJk784ga-2" value="" style="line;strokeWidth=1;fillColor=none;align=left;verticalAlign=middle;spacingTop=-1;spacingLeft=3;spacingRight=3;rotatable=0;labelPosition=right;points=[];portConstraint=eastwest;" parent="hWZM5mHgQjfYqJk784ga-1" vertex="1">
                    <mxGeometry y="90" width="180" height="8" as="geometry"/>
                </mxCell>
                <mxCell id="T1dOEV17NrI4P8K_GfUH-4" value="+ get" style="text;html=1;strokeColor=none;fillColor=none;align=left;verticalAlign=middle;spacingLeft=4;spacingRight=4;overflow=hidden;rotatable=0;points=[[0,0.5],[1,0.5]];portConstraint=eastwest;" parent="hWZM5mHgQjfYqJk784ga-1" vertex="1">
                    <mxGeometry y="98" width="180" height="20" as="geometry"/>
                </mxCell>
                <mxCell id="T1dOEV17NrI4P8K_GfUH-5" value="+ post" style="text;html=1;strokeColor=none;fillColor=none;align=left;verticalAlign=middle;spacingLeft=4;spacingRight=4;overflow=hidden;rotatable=0;points=[[0,0.5],[1,0.5]];portConstraint=eastwest;" parent="hWZM5mHgQjfYqJk784ga-1" vertex="1">
                    <mxGeometry y="118" width="180" height="20" as="geometry"/>
                </mxCell>
                <mxCell id="T1dOEV17NrI4P8K_GfUH-6" value="+ put" style="text;html=1;strokeColor=none;fillColor=none;align=left;verticalAlign=middle;spacingLeft=4;spacingRight=4;overflow=hidden;rotatable=0;points=[[0,0.5],[1,0.5]];portConstraint=eastwest;" parent="hWZM5mHgQjfYqJk784ga-1" vertex="1">
                    <mxGeometry y="138" width="180" height="20" as="geometry"/>
                </mxCell>
                <mxCell id="T1dOEV17NrI4P8K_GfUH-7" value="+ delete" style="text;html=1;strokeColor=none;fillColor=none;align=left;verticalAlign=middle;spacingLeft=4;spacingRight=4;overflow=hidden;rotatable=0;points=[[0,0.5],[1,0.5]];portConstraint=eastwest;" parent="hWZM5mHgQjfYqJk784ga-1" vertex="1">
                    <mxGeometry y="158" width="180" height="20" as="geometry"/>
                </mxCell>
                <mxCell id="T1dOEV17NrI4P8K_GfUH-8" value="- request" style="text;html=1;strokeColor=none;fillColor=none;align=left;verticalAlign=middle;spacingLeft=4;spacingRight=4;overflow=hidden;rotatable=0;points=[[0,0.5],[1,0.5]];portConstraint=eastwest;" parent="hWZM5mHgQjfYqJk784ga-1" vertex="1">
                    <mxGeometry y="178" width="180" height="20" as="geometry"/>
                </mxCell>
                <mxCell id="T1dOEV17NrI4P8K_GfUH-9" value="- requestText" style="text;html=1;strokeColor=none;fillColor=none;align=left;verticalAlign=middle;spacingLeft=4;spacingRight=4;overflow=hidden;rotatable=0;points=[[0,0.5],[1,0.5]];portConstraint=eastwest;" parent="hWZM5mHgQjfYqJk784ga-1" vertex="1">
                    <mxGeometry y="198" width="180" height="20" as="geometry"/>
                </mxCell>
                <mxCell id="T1dOEV17NrI4P8K_GfUH-10" value="- createRequest" style="text;html=1;strokeColor=none;fillColor=none;align=left;verticalAlign=middle;spacingLeft=4;spacingRight=4;overflow=hidden;rotatable=0;points=[[0,0.5],[1,0.5]];portConstraint=eastwest;" parent="hWZM5mHgQjfYqJk784ga-1" vertex="1">
                    <mxGeometry y="218" width="180" height="20" as="geometry"/>
                </mxCell>
            </root>
        </mxGraphModel>
    </diagram>
    <diagram id="iX9l1axtm0U5_4Cx5ymV" name="ModelModule">
        <mxGraphModel dx="1370" dy="522" grid="1" gridSize="10" guides="1" tooltips="1" connect="1" arrows="1" fold="1" page="1" pageScale="1" pageWidth="4681" pageHeight="3300" math="0" shadow="0">
            <root>
                <mxCell id="0"/>
                <mxCell id="1" parent="0"/>
                <mxCell id="QwX7j8-Ijk-ptMR5glh_-1" value="Entity" style="swimlane;fontStyle=0;align=center;verticalAlign=top;childLayout=stackLayout;horizontal=1;startSize=30;horizontalStack=0;resizeParent=1;resizeParentMax=0;resizeLast=0;collapsible=0;marginBottom=0;html=1;" parent="1" vertex="1">
                    <mxGeometry x="80" y="80" width="140" height="78" as="geometry"/>
                </mxCell>
                <mxCell id="QwX7j8-Ijk-ptMR5glh_-2" value="" style="line;strokeWidth=1;fillColor=none;align=left;verticalAlign=middle;spacingTop=-1;spacingLeft=3;spacingRight=3;rotatable=0;labelPosition=right;points=[];portConstraint=eastwest;" parent="QwX7j8-Ijk-ptMR5glh_-1" vertex="1">
                    <mxGeometry y="30" width="140" height="8" as="geometry"/>
                </mxCell>
                <mxCell id="QwX7j8-Ijk-ptMR5glh_-3" value="+ id" style="text;html=1;strokeColor=none;fillColor=none;align=left;verticalAlign=middle;spacingLeft=4;spacingRight=4;overflow=hidden;rotatable=0;points=[[0,0.5],[1,0.5]];portConstraint=eastwest;" parent="QwX7j8-Ijk-ptMR5glh_-1" vertex="1">
                    <mxGeometry y="38" width="140" height="20" as="geometry"/>
                </mxCell>
                <mxCell id="QwX7j8-Ijk-ptMR5glh_-6" value="+ createdAt" style="text;html=1;strokeColor=none;fillColor=none;align=left;verticalAlign=middle;spacingLeft=4;spacingRight=4;overflow=hidden;rotatable=0;points=[[0,0.5],[1,0.5]];portConstraint=eastwest;" parent="QwX7j8-Ijk-ptMR5glh_-1" vertex="1">
                    <mxGeometry y="58" width="140" height="20" as="geometry"/>
                </mxCell>
            </root>
        </mxGraphModel>
    </diagram>
    <diagram id="3-kz5vick1raBAcmtaBs" name="AuthenticationModule">
        <mxGraphModel dx="1130" dy="522" grid="1" gridSize="10" guides="1" tooltips="1" connect="1" arrows="1" fold="1" page="1" pageScale="1" pageWidth="4681" pageHeight="3300" math="0" shadow="0">
            <root>
                <mxCell id="0"/>
                <mxCell id="1" parent="0"/>
                <mxCell id="3" value="IUserAuthenticator" style="swimlane;fontStyle=0;align=center;verticalAlign=top;childLayout=stackLayout;horizontal=1;startSize=30;horizontalStack=0;resizeParent=1;resizeParentMax=0;resizeLast=0;collapsible=0;marginBottom=0;html=1;" parent="1" vertex="1">
                    <mxGeometry x="280" y="240" width="140" height="78" as="geometry"/>
                </mxCell>
                <mxCell id="8" value="" style="line;strokeWidth=1;fillColor=none;align=left;verticalAlign=middle;spacingTop=-1;spacingLeft=3;spacingRight=3;rotatable=0;labelPosition=right;points=[];portConstraint=eastwest;" parent="3" vertex="1">
                    <mxGeometry y="30" width="140" height="8" as="geometry"/>
                </mxCell>
                <mxCell id="17" value="+ login" style="text;html=1;strokeColor=none;fillColor=none;align=left;verticalAlign=middle;spacingLeft=4;spacingRight=4;overflow=hidden;rotatable=0;points=[[0,0.5],[1,0.5]];portConstraint=eastwest;" parent="3" vertex="1">
                    <mxGeometry y="38" width="140" height="20" as="geometry"/>
                </mxCell>
                <mxCell id="10" value="+ logout" style="text;html=1;strokeColor=none;fillColor=none;align=left;verticalAlign=middle;spacingLeft=4;spacingRight=4;overflow=hidden;rotatable=0;points=[[0,0.5],[1,0.5]];portConstraint=eastwest;" parent="3" vertex="1">
                    <mxGeometry y="58" width="140" height="20" as="geometry"/>
                </mxCell>
                <mxCell id="49" value="IAuthenticationUserRegistrar" style="swimlane;fontStyle=0;align=center;verticalAlign=top;childLayout=stackLayout;horizontal=1;startSize=30;horizontalStack=0;resizeParent=1;resizeParentMax=0;resizeLast=0;collapsible=0;marginBottom=0;html=1;" parent="1" vertex="1">
                    <mxGeometry x="280" y="80" width="180" height="78" as="geometry"/>
                </mxCell>
                <mxCell id="51" value="" style="line;strokeWidth=1;fillColor=none;align=left;verticalAlign=middle;spacingTop=-1;spacingLeft=3;spacingRight=3;rotatable=0;labelPosition=right;points=[];portConstraint=eastwest;" parent="49" vertex="1">
                    <mxGeometry y="30" width="180" height="8" as="geometry"/>
                </mxCell>
                <mxCell id="53" value="+ register" style="text;html=1;strokeColor=none;fillColor=none;align=left;verticalAlign=middle;spacingLeft=4;spacingRight=4;overflow=hidden;rotatable=0;points=[[0,0.5],[1,0.5]];portConstraint=eastwest;" parent="49" vertex="1">
                    <mxGeometry y="38" width="180" height="20" as="geometry"/>
                </mxCell>
                <mxCell id="yt6KAP3creHrOsAd4R3b-132" value="+ delete" style="text;html=1;strokeColor=none;fillColor=none;align=left;verticalAlign=middle;spacingLeft=4;spacingRight=4;overflow=hidden;rotatable=0;points=[[0,0.5],[1,0.5]];portConstraint=eastwest;" parent="49" vertex="1">
                    <mxGeometry y="58" width="180" height="20" as="geometry"/>
                </mxCell>
                <mxCell id="101" value="UserAccountManager" style="swimlane;fontStyle=0;align=center;verticalAlign=top;childLayout=stackLayout;horizontal=1;startSize=30;horizontalStack=0;resizeParent=1;resizeParentMax=0;resizeLast=0;collapsible=0;marginBottom=0;html=1;" parent="1" vertex="1">
                    <mxGeometry x="520" y="140" width="190" height="118" as="geometry"/>
                </mxCell>
                <mxCell id="102" value="" style="line;strokeWidth=1;fillColor=none;align=left;verticalAlign=middle;spacingTop=-1;spacingLeft=3;spacingRight=3;rotatable=0;labelPosition=right;points=[];portConstraint=eastwest;" parent="101" vertex="1">
                    <mxGeometry y="30" width="190" height="8" as="geometry"/>
                </mxCell>
                <mxCell id="105" value="+ register" style="text;html=1;strokeColor=none;fillColor=none;align=left;verticalAlign=middle;spacingLeft=4;spacingRight=4;overflow=hidden;rotatable=0;points=[[0,0.5],[1,0.5]];portConstraint=eastwest;" parent="101" vertex="1">
                    <mxGeometry y="38" width="190" height="20" as="geometry"/>
                </mxCell>
                <mxCell id="piYIkX6O2MntI5kPEJgt-131" value="+ delete" style="text;html=1;strokeColor=none;fillColor=none;align=left;verticalAlign=middle;spacingLeft=4;spacingRight=4;overflow=hidden;rotatable=0;points=[[0,0.5],[1,0.5]];portConstraint=eastwest;" parent="101" vertex="1">
                    <mxGeometry y="58" width="190" height="20" as="geometry"/>
                </mxCell>
                <mxCell id="103" value="+ login" style="text;html=1;strokeColor=none;fillColor=none;align=left;verticalAlign=middle;spacingLeft=4;spacingRight=4;overflow=hidden;rotatable=0;points=[[0,0.5],[1,0.5]];portConstraint=eastwest;" parent="101" vertex="1">
                    <mxGeometry y="78" width="190" height="20" as="geometry"/>
                </mxCell>
                <mxCell id="104" value="+ logout" style="text;html=1;strokeColor=none;fillColor=none;align=left;verticalAlign=middle;spacingLeft=4;spacingRight=4;overflow=hidden;rotatable=0;points=[[0,0.5],[1,0.5]];portConstraint=eastwest;" parent="101" vertex="1">
                    <mxGeometry y="98" width="190" height="20" as="geometry"/>
                </mxCell>
                <mxCell id="112" value="UserRegistrationAction" style="swimlane;fontStyle=0;align=center;verticalAlign=top;childLayout=stackLayout;horizontal=1;startSize=30;horizontalStack=0;resizeParent=1;resizeParentMax=0;resizeLast=0;collapsible=0;marginBottom=0;html=1;" parent="1" vertex="1">
                    <mxGeometry x="80" y="80" width="140" height="78" as="geometry"/>
                </mxCell>
                <mxCell id="113" value="" style="line;strokeWidth=1;fillColor=none;align=left;verticalAlign=middle;spacingTop=-1;spacingLeft=3;spacingRight=3;rotatable=0;labelPosition=right;points=[];portConstraint=eastwest;" parent="112" vertex="1">
                    <mxGeometry y="30" width="140" height="8" as="geometry"/>
                </mxCell>
                <mxCell id="ZtrmPcMHAMtqLfyypcqU-131" value="+ register" style="text;html=1;strokeColor=none;fillColor=none;align=left;verticalAlign=middle;spacingLeft=4;spacingRight=4;overflow=hidden;rotatable=0;points=[[0,0.5],[1,0.5]];portConstraint=eastwest;" parent="112" vertex="1">
                    <mxGeometry y="38" width="140" height="20" as="geometry"/>
                </mxCell>
                <mxCell id="ZtrmPcMHAMtqLfyypcqU-132" value="+ delete" style="text;html=1;strokeColor=none;fillColor=none;align=left;verticalAlign=middle;spacingLeft=4;spacingRight=4;overflow=hidden;rotatable=0;points=[[0,0.5],[1,0.5]];portConstraint=eastwest;" parent="112" vertex="1">
                    <mxGeometry y="58" width="140" height="20" as="geometry"/>
                </mxCell>
                <mxCell id="116" style="edgeStyle=none;rounded=0;jumpSize=6;html=1;exitX=0.005;exitY=1.1;exitDx=0;exitDy=0;strokeWidth=1;endArrow=block;endFill=0;endSize=12;targetPerimeterSpacing=0;entryX=1;entryY=0.5;entryDx=0;entryDy=0;dashed=1;exitPerimeter=0;" parent="1" source="105" target="49" edge="1">
                    <mxGeometry relative="1" as="geometry"/>
                </mxCell>
                <mxCell id="117" style="edgeStyle=none;rounded=0;jumpSize=6;html=1;exitX=0;exitY=0.5;exitDx=0;exitDy=0;strokeWidth=1;endArrow=block;endFill=0;endSize=12;targetPerimeterSpacing=0;entryX=1;entryY=0.5;entryDx=0;entryDy=0;dashed=1;" parent="1" source="piYIkX6O2MntI5kPEJgt-131" target="17" edge="1">
                    <mxGeometry relative="1" as="geometry"/>
                </mxCell>
                <mxCell id="131" style="edgeStyle=none;rounded=0;jumpSize=6;html=1;exitX=1;exitY=0.625;exitDx=0;exitDy=0;strokeWidth=1;endArrow=none;endFill=0;startSize=6;endSize=12;targetPerimeterSpacing=0;exitPerimeter=0;entryX=0.057;entryY=0.625;entryDx=0;entryDy=0;entryPerimeter=0;" parent="1" source="127" target="8" edge="1">
                    <mxGeometry relative="1" as="geometry">
                        <mxPoint x="290" y="270" as="targetPoint"/>
                    </mxGeometry>
                </mxCell>
                <mxCell id="126" value="UserAuthenticationAction" style="swimlane;fontStyle=0;align=center;verticalAlign=top;childLayout=stackLayout;horizontal=1;startSize=30;horizontalStack=0;resizeParent=1;resizeParentMax=0;resizeLast=0;collapsible=0;marginBottom=0;html=1;" parent="1" vertex="1">
                    <mxGeometry x="80" y="240" width="140" height="78" as="geometry"/>
                </mxCell>
                <mxCell id="127" value="" style="line;strokeWidth=1;fillColor=none;align=left;verticalAlign=middle;spacingTop=-1;spacingLeft=3;spacingRight=3;rotatable=0;labelPosition=right;points=[];portConstraint=eastwest;" parent="126" vertex="1">
                    <mxGeometry y="30" width="140" height="8" as="geometry"/>
                </mxCell>
                <mxCell id="ZtrmPcMHAMtqLfyypcqU-133" value="+ login" style="text;html=1;strokeColor=none;fillColor=none;align=left;verticalAlign=middle;spacingLeft=4;spacingRight=4;overflow=hidden;rotatable=0;points=[[0,0.5],[1,0.5]];portConstraint=eastwest;" parent="126" vertex="1">
                    <mxGeometry y="38" width="140" height="20" as="geometry"/>
                </mxCell>
                <mxCell id="ZtrmPcMHAMtqLfyypcqU-134" value="+ logout" style="text;html=1;strokeColor=none;fillColor=none;align=left;verticalAlign=middle;spacingLeft=4;spacingRight=4;overflow=hidden;rotatable=0;points=[[0,0.5],[1,0.5]];portConstraint=eastwest;" parent="126" vertex="1">
                    <mxGeometry y="58" width="140" height="20" as="geometry"/>
                </mxCell>
                <mxCell id="sKEF81KDNO1Qis2VkyCr-133" style="edgeStyle=none;html=1;exitX=0;exitY=0.5;exitDx=0;exitDy=0;entryX=1;entryY=0.5;entryDx=0;entryDy=0;dashed=1;endArrow=block;endFill=0;endSize=12;" parent="1" source="MHqyuITcITNYaApnnBGC-131" target="tOkZ-eHImCjVZPXvjKDY-134" edge="1">
                    <mxGeometry relative="1" as="geometry"/>
                </mxCell>
                <mxCell id="MHqyuITcITNYaApnnBGC-131" value="FirebaseClient" style="swimlane;fontStyle=0;align=center;verticalAlign=top;childLayout=stackLayout;horizontal=1;startSize=30;horizontalStack=0;resizeParent=1;resizeParentMax=0;resizeLast=0;collapsible=0;marginBottom=0;html=1;" parent="1" vertex="1">
                    <mxGeometry x="1240" y="289" width="370" height="38" as="geometry"/>
                </mxCell>
                <mxCell id="MHqyuITcITNYaApnnBGC-132" value="" style="line;strokeWidth=1;fillColor=none;align=left;verticalAlign=middle;spacingTop=-1;spacingLeft=3;spacingRight=3;rotatable=0;labelPosition=right;points=[];portConstraint=eastwest;" parent="MHqyuITcITNYaApnnBGC-131" vertex="1">
                    <mxGeometry y="30" width="370" height="8" as="geometry"/>
                </mxCell>
                <mxCell id="ccIZCH_dHccHTGgyO-Ay-131" value="&lt;span style=&quot;text-align: left;&quot;&gt;SignInWithEmailPasswordResponse&lt;/span&gt;" style="swimlane;fontStyle=0;align=center;verticalAlign=top;childLayout=stackLayout;horizontal=1;startSize=30;horizontalStack=0;resizeParent=1;resizeParentMax=0;resizeLast=0;collapsible=0;marginBottom=0;html=1;" parent="1" vertex="1">
                    <mxGeometry x="990" y="422.5" width="230" height="38" as="geometry"/>
                </mxCell>
                <mxCell id="ccIZCH_dHccHTGgyO-Ay-132" value="" style="line;strokeWidth=1;fillColor=none;align=left;verticalAlign=middle;spacingTop=-1;spacingLeft=3;spacingRight=3;rotatable=0;labelPosition=right;points=[];portConstraint=eastwest;" parent="ccIZCH_dHccHTGgyO-Ay-131" vertex="1">
                    <mxGeometry y="30" width="230" height="8" as="geometry"/>
                </mxCell>
                <mxCell id="ccIZCH_dHccHTGgyO-Ay-133" value="&lt;span style=&quot;text-align: left;&quot;&gt;SignupResponse&lt;/span&gt;" style="swimlane;fontStyle=0;align=center;verticalAlign=top;childLayout=stackLayout;horizontal=1;startSize=30;horizontalStack=0;resizeParent=1;resizeParentMax=0;resizeLast=0;collapsible=0;marginBottom=0;html=1;" parent="1" vertex="1">
                    <mxGeometry x="720" y="422.5" width="180" height="38" as="geometry"/>
                </mxCell>
                <mxCell id="ccIZCH_dHccHTGgyO-Ay-134" value="" style="line;strokeWidth=1;fillColor=none;align=left;verticalAlign=middle;spacingTop=-1;spacingLeft=3;spacingRight=3;rotatable=0;labelPosition=right;points=[];portConstraint=eastwest;" parent="ccIZCH_dHccHTGgyO-Ay-133" vertex="1">
                    <mxGeometry y="30" width="180" height="8" as="geometry"/>
                </mxCell>
                <mxCell id="tOkZ-eHImCjVZPXvjKDY-131" value="IAuthenticationClient" style="swimlane;fontStyle=0;align=center;verticalAlign=top;childLayout=stackLayout;horizontal=1;startSize=30;horizontalStack=0;resizeParent=1;resizeParentMax=0;resizeLast=0;collapsible=0;marginBottom=0;html=1;" parent="1" vertex="1">
                    <mxGeometry x="785" y="240" width="370" height="118" as="geometry"/>
                </mxCell>
                <mxCell id="tOkZ-eHImCjVZPXvjKDY-132" value="" style="line;strokeWidth=1;fillColor=none;align=left;verticalAlign=middle;spacingTop=-1;spacingLeft=3;spacingRight=3;rotatable=0;labelPosition=right;points=[];portConstraint=eastwest;" parent="tOkZ-eHImCjVZPXvjKDY-131" vertex="1">
                    <mxGeometry y="30" width="370" height="8" as="geometry"/>
                </mxCell>
                <mxCell id="tOkZ-eHImCjVZPXvjKDY-133" value="+ signUp : SignupResponse" style="text;html=1;strokeColor=none;fillColor=none;align=left;verticalAlign=middle;spacingLeft=4;spacingRight=4;overflow=hidden;rotatable=0;points=[[0,0.5],[1,0.5]];portConstraint=eastwest;" parent="tOkZ-eHImCjVZPXvjKDY-131" vertex="1">
                    <mxGeometry y="38" width="370" height="20" as="geometry"/>
                </mxCell>
                <mxCell id="tOkZ-eHImCjVZPXvjKDY-134" value="+ signInWithEmailPassword : SignInWithEmailPasswordResponse" style="text;html=1;strokeColor=none;fillColor=none;align=left;verticalAlign=middle;spacingLeft=4;spacingRight=4;overflow=hidden;rotatable=0;points=[[0,0.5],[1,0.5]];portConstraint=eastwest;" parent="tOkZ-eHImCjVZPXvjKDY-131" vertex="1">
                    <mxGeometry y="58" width="370" height="20" as="geometry"/>
                </mxCell>
                <mxCell id="tOkZ-eHImCjVZPXvjKDY-135" value="+ getUserInformation : GetUserInformationResponse" style="text;html=1;strokeColor=none;fillColor=none;align=left;verticalAlign=middle;spacingLeft=4;spacingRight=4;overflow=hidden;rotatable=0;points=[[0,0.5],[1,0.5]];portConstraint=eastwest;" parent="tOkZ-eHImCjVZPXvjKDY-131" vertex="1">
                    <mxGeometry y="78" width="370" height="20" as="geometry"/>
                </mxCell>
                <mxCell id="tOkZ-eHImCjVZPXvjKDY-136" value="+ deleteUser" style="text;html=1;strokeColor=none;fillColor=none;align=left;verticalAlign=middle;spacingLeft=4;spacingRight=4;overflow=hidden;rotatable=0;points=[[0,0.5],[1,0.5]];portConstraint=eastwest;" parent="tOkZ-eHImCjVZPXvjKDY-131" vertex="1">
                    <mxGeometry y="98" width="370" height="20" as="geometry"/>
                </mxCell>
                <mxCell id="M9VEGRyNzAQKCecDsUDK-131" value="IUserRepository" style="swimlane;fontStyle=0;align=center;verticalAlign=top;childLayout=stackLayout;horizontal=1;startSize=30;horizontalStack=0;resizeParent=1;resizeParentMax=0;resizeLast=0;collapsible=0;marginBottom=0;html=1;" parent="1" vertex="1">
                    <mxGeometry x="785" y="80" width="350" height="38" as="geometry"/>
                </mxCell>
                <mxCell id="M9VEGRyNzAQKCecDsUDK-132" value="" style="line;strokeWidth=1;fillColor=none;align=left;verticalAlign=middle;spacingTop=-1;spacingLeft=3;spacingRight=3;rotatable=0;labelPosition=right;points=[];portConstraint=eastwest;" parent="M9VEGRyNzAQKCecDsUDK-131" vertex="1">
                    <mxGeometry y="30" width="350" height="8" as="geometry"/>
                </mxCell>
                <mxCell id="oQThxyx3VZY3kqbTmfve-131" style="edgeStyle=none;html=1;exitX=1;exitY=0.5;exitDx=0;exitDy=0;entryX=0;entryY=0.5;entryDx=0;entryDy=0;dashed=1;endArrow=open;endFill=0;endSize=12;" edge="1" parent="1" source="M9VEGRyNzAQKCecDsUDK-139" target="dV3yvDb8gSkLtUbUvPCk-131">
                    <mxGeometry relative="1" as="geometry"/>
                </mxCell>
                <mxCell id="M9VEGRyNzAQKCecDsUDK-139" value="PostgresUserRepository" style="swimlane;fontStyle=0;align=center;verticalAlign=top;childLayout=stackLayout;horizontal=1;startSize=30;horizontalStack=0;resizeParent=1;resizeParentMax=0;resizeLast=0;collapsible=0;marginBottom=0;html=1;" parent="1" vertex="1">
                    <mxGeometry x="1240" y="80" width="350" height="38" as="geometry"/>
                </mxCell>
                <mxCell id="M9VEGRyNzAQKCecDsUDK-140" value="" style="line;strokeWidth=1;fillColor=none;align=left;verticalAlign=middle;spacingTop=-1;spacingLeft=3;spacingRight=3;rotatable=0;labelPosition=right;points=[];portConstraint=eastwest;" parent="M9VEGRyNzAQKCecDsUDK-139" vertex="1">
                    <mxGeometry y="30" width="350" height="8" as="geometry"/>
                </mxCell>
                <mxCell id="M9VEGRyNzAQKCecDsUDK-147" style="edgeStyle=none;html=1;exitX=0;exitY=0.5;exitDx=0;exitDy=0;dashed=1;endArrow=block;endFill=0;endSize=12;entryX=1;entryY=0.5;entryDx=0;entryDy=0;" parent="1" source="M9VEGRyNzAQKCecDsUDK-139" target="M9VEGRyNzAQKCecDsUDK-131" edge="1">
                    <mxGeometry relative="1" as="geometry">
                        <mxPoint x="1225" y="128" as="sourcePoint"/>
                        <mxPoint x="1026" y="138" as="targetPoint"/>
                    </mxGeometry>
                </mxCell>
                <mxCell id="sKEF81KDNO1Qis2VkyCr-131" style="edgeStyle=none;html=1;exitX=0.205;exitY=1.125;exitDx=0;exitDy=0;dashed=1;endArrow=open;endFill=0;endSize=12;exitPerimeter=0;" parent="1" source="tOkZ-eHImCjVZPXvjKDY-136" target="ccIZCH_dHccHTGgyO-Ay-133" edge="1">
                    <mxGeometry relative="1" as="geometry"/>
                </mxCell>
                <mxCell id="sKEF81KDNO1Qis2VkyCr-132" style="edgeStyle=none;html=1;exitX=0.765;exitY=1.175;exitDx=0;exitDy=0;entryX=0.5;entryY=0;entryDx=0;entryDy=0;dashed=1;endArrow=open;endFill=0;endSize=12;exitPerimeter=0;" parent="1" source="tOkZ-eHImCjVZPXvjKDY-136" target="ccIZCH_dHccHTGgyO-Ay-131" edge="1">
                    <mxGeometry relative="1" as="geometry"/>
                </mxCell>
                <mxCell id="jNgxPIKoUlv8ColZSHOO-131" style="edgeStyle=none;html=1;exitX=1;exitY=0.5;exitDx=0;exitDy=0;entryX=0;entryY=0.5;entryDx=0;entryDy=0;endArrow=none;endFill=0;endSize=12;" parent="1" source="ZtrmPcMHAMtqLfyypcqU-131" target="53" edge="1">
                    <mxGeometry relative="1" as="geometry"/>
                </mxCell>
                <mxCell id="BQsiOzL3-zcLT21oY1g6-131" style="edgeStyle=none;html=1;exitX=1;exitY=0.5;exitDx=0;exitDy=0;entryX=0;entryY=0.5;entryDx=0;entryDy=0;endArrow=none;endFill=0;endSize=12;" parent="1" source="105" target="M9VEGRyNzAQKCecDsUDK-131" edge="1">
                    <mxGeometry relative="1" as="geometry"/>
                </mxCell>
                <mxCell id="BQsiOzL3-zcLT21oY1g6-132" style="edgeStyle=none;html=1;exitX=1;exitY=0.5;exitDx=0;exitDy=0;entryX=0;entryY=0.1;entryDx=0;entryDy=0;entryPerimeter=0;endArrow=none;endFill=0;endSize=12;" parent="1" source="piYIkX6O2MntI5kPEJgt-131" target="tOkZ-eHImCjVZPXvjKDY-134" edge="1">
                    <mxGeometry relative="1" as="geometry"/>
                </mxCell>
                <mxCell id="dV3yvDb8gSkLtUbUvPCk-131" value="PostgresClientProvider" style="swimlane;fontStyle=0;align=center;verticalAlign=top;childLayout=stackLayout;horizontal=1;startSize=30;horizontalStack=0;resizeParent=1;resizeParentMax=0;resizeLast=0;collapsible=0;marginBottom=0;html=1;" vertex="1" parent="1">
                    <mxGeometry x="1680" y="70" width="180" height="58" as="geometry"/>
                </mxCell>
                <mxCell id="dV3yvDb8gSkLtUbUvPCk-132" value="" style="line;strokeWidth=1;fillColor=none;align=left;verticalAlign=middle;spacingTop=-1;spacingLeft=3;spacingRight=3;rotatable=0;labelPosition=right;points=[];portConstraint=eastwest;" vertex="1" parent="dV3yvDb8gSkLtUbUvPCk-131">
                    <mxGeometry y="30" width="180" height="8" as="geometry"/>
                </mxCell>
                <mxCell id="dV3yvDb8gSkLtUbUvPCk-133" value="+ get" style="text;html=1;strokeColor=none;fillColor=none;align=left;verticalAlign=middle;spacingLeft=4;spacingRight=4;overflow=hidden;rotatable=0;points=[[0,0.5],[1,0.5]];portConstraint=eastwest;" vertex="1" parent="dV3yvDb8gSkLtUbUvPCk-131">
                    <mxGeometry y="38" width="180" height="20" as="geometry"/>
                </mxCell>
            </root>
        </mxGraphModel>
    </diagram>
    <diagram name="UserModule" id="nv-yH4P3eAEJZ1VODmPg">
        <mxGraphModel dx="1370" dy="522" grid="1" gridSize="10" guides="1" tooltips="1" connect="1" arrows="1" fold="1" page="1" pageScale="1" pageWidth="4681" pageHeight="3300" math="0" shadow="0">
            <root>
                <mxCell id="PNC22y-YUvZ2O8BG3Lub-0"/>
                <mxCell id="PNC22y-YUvZ2O8BG3Lub-1" parent="PNC22y-YUvZ2O8BG3Lub-0"/>
                <mxCell id="PNC22y-YUvZ2O8BG3Lub-6" value="AuthenticatedUser" style="swimlane;fontStyle=0;align=center;verticalAlign=top;childLayout=stackLayout;horizontal=1;startSize=30;horizontalStack=0;resizeParent=1;resizeParentMax=0;resizeLast=0;collapsible=0;marginBottom=0;html=1;" parent="PNC22y-YUvZ2O8BG3Lub-1" vertex="1">
                    <mxGeometry x="380" y="300" width="160" height="98" as="geometry"/>
                </mxCell>
                <mxCell id="PNC22y-YUvZ2O8BG3Lub-8" value="+ profileId" style="text;html=1;strokeColor=none;fillColor=none;align=left;verticalAlign=middle;spacingLeft=4;spacingRight=4;overflow=hidden;rotatable=0;points=[[0,0.5],[1,0.5]];portConstraint=eastwest;" parent="PNC22y-YUvZ2O8BG3Lub-6" vertex="1">
                    <mxGeometry y="30" width="160" height="20" as="geometry"/>
                </mxCell>
                <mxCell id="QnlcoHv7iyvOL2-Xf5XT-1" value="+ authenticationProviderId" style="text;html=1;strokeColor=none;fillColor=none;align=left;verticalAlign=middle;spacingLeft=4;spacingRight=4;overflow=hidden;rotatable=0;points=[[0,0.5],[1,0.5]];portConstraint=eastwest;" parent="PNC22y-YUvZ2O8BG3Lub-6" vertex="1">
                    <mxGeometry y="50" width="160" height="20" as="geometry"/>
                </mxCell>
                <mxCell id="QnlcoHv7iyvOL2-Xf5XT-2" value="+ userName" style="text;html=1;strokeColor=none;fillColor=none;align=left;verticalAlign=middle;spacingLeft=4;spacingRight=4;overflow=hidden;rotatable=0;points=[[0,0.5],[1,0.5]];portConstraint=eastwest;" parent="PNC22y-YUvZ2O8BG3Lub-6" vertex="1">
                    <mxGeometry y="70" width="160" height="20" as="geometry"/>
                </mxCell>
                <mxCell id="PNC22y-YUvZ2O8BG3Lub-10" value="" style="line;strokeWidth=1;fillColor=none;align=left;verticalAlign=middle;spacingTop=-1;spacingLeft=3;spacingRight=3;rotatable=0;labelPosition=right;points=[];portConstraint=eastwest;" parent="PNC22y-YUvZ2O8BG3Lub-6" vertex="1">
                    <mxGeometry y="90" width="160" height="8" as="geometry"/>
                </mxCell>
                <mxCell id="PNC22y-YUvZ2O8BG3Lub-22" value="IAuthenticatedUserProvider" style="swimlane;fontStyle=0;align=center;verticalAlign=top;childLayout=stackLayout;horizontal=1;startSize=30;horizontalStack=0;resizeParent=1;resizeParentMax=0;resizeLast=0;collapsible=0;marginBottom=0;html=1;" parent="PNC22y-YUvZ2O8BG3Lub-1" vertex="1">
                    <mxGeometry x="372.5" y="180" width="175" height="78" as="geometry"/>
                </mxCell>
                <mxCell id="PNC22y-YUvZ2O8BG3Lub-23" value="" style="line;strokeWidth=1;fillColor=none;align=left;verticalAlign=middle;spacingTop=-1;spacingLeft=3;spacingRight=3;rotatable=0;labelPosition=right;points=[];portConstraint=eastwest;" parent="PNC22y-YUvZ2O8BG3Lub-22" vertex="1">
                    <mxGeometry y="30" width="175" height="8" as="geometry"/>
                </mxCell>
                <mxCell id="PNC22y-YUvZ2O8BG3Lub-24" value="+ getUser :&amp;nbsp;&lt;span style=&quot;text-align: center;&quot;&gt;AuthenticatedUser&lt;/span&gt;" style="text;html=1;strokeColor=none;fillColor=none;align=left;verticalAlign=middle;spacingLeft=4;spacingRight=4;overflow=hidden;rotatable=0;points=[[0,0.5],[1,0.5]];portConstraint=eastwest;" parent="PNC22y-YUvZ2O8BG3Lub-22" vertex="1">
                    <mxGeometry y="38" width="175" height="20" as="geometry"/>
                </mxCell>
                <mxCell id="fsvCz5deO5v4VCZJ9iMR-1" value="+ getAuthenticationProviderId" style="text;html=1;strokeColor=none;fillColor=none;align=left;verticalAlign=middle;spacingLeft=4;spacingRight=4;overflow=hidden;rotatable=0;points=[[0,0.5],[1,0.5]];portConstraint=eastwest;" parent="PNC22y-YUvZ2O8BG3Lub-22" vertex="1">
                    <mxGeometry y="58" width="175" height="20" as="geometry"/>
                </mxCell>
                <mxCell id="qCu1tEPEtduTOhcFV7-0-0" style="edgeStyle=none;html=1;exitX=0;exitY=0.5;exitDx=0;exitDy=0;entryX=1;entryY=0.5;entryDx=0;entryDy=0;dashed=1;endArrow=block;endFill=0;endSize=12;" parent="PNC22y-YUvZ2O8BG3Lub-1" source="PNC22y-YUvZ2O8BG3Lub-27" target="PNC22y-YUvZ2O8BG3Lub-22" edge="1">
                    <mxGeometry relative="1" as="geometry"/>
                </mxCell>
                <mxCell id="K_mYDwtpnmWMI_1V_JY_-2" style="edgeStyle=none;html=1;exitX=1;exitY=0.5;exitDx=0;exitDy=0;entryX=0;entryY=0.5;entryDx=0;entryDy=0;endArrow=none;endFill=0;endSize=12;" parent="PNC22y-YUvZ2O8BG3Lub-1" source="PNC22y-YUvZ2O8BG3Lub-27" target="CgHtUZADvTQVacolw53A-3" edge="1">
                    <mxGeometry relative="1" as="geometry">
                        <mxPoint x="900" y="142" as="targetPoint"/>
                    </mxGeometry>
                </mxCell>
                <mxCell id="K_mYDwtpnmWMI_1V_JY_-3" style="edgeStyle=none;html=1;exitX=1;exitY=0.5;exitDx=0;exitDy=0;entryX=0;entryY=0.5;entryDx=0;entryDy=0;endArrow=none;endFill=0;endSize=12;" parent="PNC22y-YUvZ2O8BG3Lub-1" source="PNC22y-YUvZ2O8BG3Lub-27" target="AvV4d_TGDyfYby042sXa-0" edge="1">
                    <mxGeometry relative="1" as="geometry">
                        <mxPoint x="900" y="310" as="targetPoint"/>
                    </mxGeometry>
                </mxCell>
                <mxCell id="PNC22y-YUvZ2O8BG3Lub-27" value="AuthenticatedUserProvider" style="swimlane;fontStyle=0;align=center;verticalAlign=top;childLayout=stackLayout;horizontal=1;startSize=30;horizontalStack=0;resizeParent=1;resizeParentMax=0;resizeLast=0;collapsible=0;marginBottom=0;html=1;" parent="PNC22y-YUvZ2O8BG3Lub-1" vertex="1">
                    <mxGeometry x="620" y="180" width="210" height="78" as="geometry"/>
                </mxCell>
                <mxCell id="PNC22y-YUvZ2O8BG3Lub-28" value="" style="line;strokeWidth=1;fillColor=none;align=left;verticalAlign=middle;spacingTop=-1;spacingLeft=3;spacingRight=3;rotatable=0;labelPosition=right;points=[];portConstraint=eastwest;" parent="PNC22y-YUvZ2O8BG3Lub-27" vertex="1">
                    <mxGeometry y="30" width="210" height="8" as="geometry"/>
                </mxCell>
                <mxCell id="PNC22y-YUvZ2O8BG3Lub-29" value="+ getUser :&amp;nbsp;&lt;span style=&quot;text-align: center;&quot;&gt;AuthenticatedUser&lt;/span&gt;" style="text;html=1;strokeColor=none;fillColor=none;align=left;verticalAlign=middle;spacingLeft=4;spacingRight=4;overflow=hidden;rotatable=0;points=[[0,0.5],[1,0.5]];portConstraint=eastwest;" parent="PNC22y-YUvZ2O8BG3Lub-27" vertex="1">
                    <mxGeometry y="38" width="210" height="20" as="geometry"/>
                </mxCell>
                <mxCell id="fsvCz5deO5v4VCZJ9iMR-2" value="+ getAuthenticationProviderId" style="text;html=1;strokeColor=none;fillColor=none;align=left;verticalAlign=middle;spacingLeft=4;spacingRight=4;overflow=hidden;rotatable=0;points=[[0,0.5],[1,0.5]];portConstraint=eastwest;" parent="PNC22y-YUvZ2O8BG3Lub-27" vertex="1">
                    <mxGeometry y="58" width="210" height="20" as="geometry"/>
                </mxCell>
                <mxCell id="5KONOnyu4_Xv4qoVRS9m-0" value="AuthenticatedUserLoader" style="swimlane;fontStyle=0;align=center;verticalAlign=top;childLayout=stackLayout;horizontal=1;startSize=30;horizontalStack=0;resizeParent=1;resizeParentMax=0;resizeLast=0;collapsible=0;marginBottom=0;html=1;" parent="PNC22y-YUvZ2O8BG3Lub-1" vertex="1">
                    <mxGeometry x="80" y="180" width="190" height="78" as="geometry"/>
                </mxCell>
                <mxCell id="5KONOnyu4_Xv4qoVRS9m-1" value="" style="line;strokeWidth=1;fillColor=none;align=left;verticalAlign=middle;spacingTop=-1;spacingLeft=3;spacingRight=3;rotatable=0;labelPosition=right;points=[];portConstraint=eastwest;" parent="5KONOnyu4_Xv4qoVRS9m-0" vertex="1">
                    <mxGeometry y="30" width="190" height="8" as="geometry"/>
                </mxCell>
                <mxCell id="5KONOnyu4_Xv4qoVRS9m-2" value="+ getUser :&amp;nbsp;&lt;span style=&quot;text-align: center;&quot;&gt;AuthenticatedUser&lt;/span&gt;" style="text;html=1;strokeColor=none;fillColor=none;align=left;verticalAlign=middle;spacingLeft=4;spacingRight=4;overflow=hidden;rotatable=0;points=[[0,0.5],[1,0.5]];portConstraint=eastwest;" parent="5KONOnyu4_Xv4qoVRS9m-0" vertex="1">
                    <mxGeometry y="38" width="190" height="20" as="geometry"/>
                </mxCell>
                <mxCell id="fsvCz5deO5v4VCZJ9iMR-0" value="+ getAuthenticationProviderId" style="text;html=1;strokeColor=none;fillColor=none;align=left;verticalAlign=middle;spacingLeft=4;spacingRight=4;overflow=hidden;rotatable=0;points=[[0,0.5],[1,0.5]];portConstraint=eastwest;" parent="5KONOnyu4_Xv4qoVRS9m-0" vertex="1">
                    <mxGeometry y="58" width="190" height="20" as="geometry"/>
                </mxCell>
                <mxCell id="q8Un9Da1RGaQRMpkmEg1-0" style="edgeStyle=none;rounded=0;jumpSize=6;html=1;entryX=0;entryY=0.5;entryDx=0;entryDy=0;strokeWidth=1;endArrow=none;endFill=0;startSize=6;endSize=12;targetPerimeterSpacing=0;" parent="PNC22y-YUvZ2O8BG3Lub-1" source="5KONOnyu4_Xv4qoVRS9m-0" target="PNC22y-YUvZ2O8BG3Lub-22" edge="1">
                    <mxGeometry relative="1" as="geometry">
                        <mxPoint x="270" y="208.5" as="sourcePoint"/>
                        <mxPoint x="350" y="208.5" as="targetPoint"/>
                    </mxGeometry>
                </mxCell>
                <mxCell id="O0krwWtfE1s0tsGJZPgx-9" style="edgeStyle=none;html=1;exitX=0;exitY=0.5;exitDx=0;exitDy=0;dashed=1;endArrow=block;endFill=0;endSize=12;entryX=1;entryY=0.5;entryDx=0;entryDy=0;" parent="PNC22y-YUvZ2O8BG3Lub-1" source="QvjEwKbX-J61uBEPFBMz-0" target="CgHtUZADvTQVacolw53A-3" edge="1">
                    <mxGeometry relative="1" as="geometry">
                        <mxPoint x="1260" y="100" as="targetPoint"/>
                    </mxGeometry>
                </mxCell>
                <mxCell id="QvjEwKbX-J61uBEPFBMz-0" value="FirebaseClient" style="swimlane;fontStyle=0;align=center;verticalAlign=top;childLayout=stackLayout;horizontal=1;startSize=30;horizontalStack=0;resizeParent=1;resizeParentMax=0;resizeLast=0;collapsible=0;marginBottom=0;html=1;" parent="PNC22y-YUvZ2O8BG3Lub-1" vertex="1">
                    <mxGeometry x="1350" y="80" width="370" height="38" as="geometry"/>
                </mxCell>
                <mxCell id="QvjEwKbX-J61uBEPFBMz-2" value="" style="line;strokeWidth=1;fillColor=none;align=left;verticalAlign=middle;spacingTop=-1;spacingLeft=3;spacingRight=3;rotatable=0;labelPosition=right;points=[];portConstraint=eastwest;" parent="QvjEwKbX-J61uBEPFBMz-0" vertex="1">
                    <mxGeometry y="30" width="370" height="8" as="geometry"/>
                </mxCell>
                <mxCell id="NK9lsmeSJY5UJ_eAUXaL-0" value="&lt;span style=&quot;text-align: left;&quot;&gt;GetUserInformationResponse&lt;/span&gt;" style="swimlane;fontStyle=0;align=center;verticalAlign=top;childLayout=stackLayout;horizontal=1;startSize=30;horizontalStack=0;resizeParent=1;resizeParentMax=0;resizeLast=0;collapsible=0;marginBottom=0;html=1;" parent="PNC22y-YUvZ2O8BG3Lub-1" vertex="1">
                    <mxGeometry x="995" y="190" width="180" height="38" as="geometry"/>
                </mxCell>
                <mxCell id="NK9lsmeSJY5UJ_eAUXaL-1" value="" style="line;strokeWidth=1;fillColor=none;align=left;verticalAlign=middle;spacingTop=-1;spacingLeft=3;spacingRight=3;rotatable=0;labelPosition=right;points=[];portConstraint=eastwest;" parent="NK9lsmeSJY5UJ_eAUXaL-0" vertex="1">
                    <mxGeometry y="30" width="180" height="8" as="geometry"/>
                </mxCell>
                <mxCell id="hDx7-XK5xaxcWgQPoxVC-1" style="edgeStyle=none;html=1;entryX=0.5;entryY=0;entryDx=0;entryDy=0;dashed=1;endArrow=open;endFill=0;endSize=12;" parent="PNC22y-YUvZ2O8BG3Lub-1" source="PNC22y-YUvZ2O8BG3Lub-24" target="PNC22y-YUvZ2O8BG3Lub-6" edge="1">
                    <mxGeometry relative="1" as="geometry"/>
                </mxCell>
                <mxCell id="CgHtUZADvTQVacolw53A-0" value="PostgresClientProvider" style="swimlane;fontStyle=0;align=center;verticalAlign=top;childLayout=stackLayout;horizontal=1;startSize=30;horizontalStack=0;resizeParent=1;resizeParentMax=0;resizeLast=0;collapsible=0;marginBottom=0;html=1;" parent="PNC22y-YUvZ2O8BG3Lub-1" vertex="1">
                    <mxGeometry x="1760" y="330" width="180" height="58" as="geometry"/>
                </mxCell>
                <mxCell id="CgHtUZADvTQVacolw53A-1" value="" style="line;strokeWidth=1;fillColor=none;align=left;verticalAlign=middle;spacingTop=-1;spacingLeft=3;spacingRight=3;rotatable=0;labelPosition=right;points=[];portConstraint=eastwest;" parent="CgHtUZADvTQVacolw53A-0" vertex="1">
                    <mxGeometry y="30" width="180" height="8" as="geometry"/>
                </mxCell>
                <mxCell id="CgHtUZADvTQVacolw53A-2" value="+ get" style="text;html=1;strokeColor=none;fillColor=none;align=left;verticalAlign=middle;spacingLeft=4;spacingRight=4;overflow=hidden;rotatable=0;points=[[0,0.5],[1,0.5]];portConstraint=eastwest;" parent="CgHtUZADvTQVacolw53A-0" vertex="1">
                    <mxGeometry y="38" width="180" height="20" as="geometry"/>
                </mxCell>
                <mxCell id="8SH-aP08yQrZ4ex-GWql-0" style="edgeStyle=none;html=1;exitX=0.5;exitY=1;exitDx=0;exitDy=0;entryX=0.5;entryY=0;entryDx=0;entryDy=0;endArrow=open;endFill=0;endSize=12;dashed=1;" parent="PNC22y-YUvZ2O8BG3Lub-1" source="CgHtUZADvTQVacolw53A-3" target="NK9lsmeSJY5UJ_eAUXaL-0" edge="1">
                    <mxGeometry relative="1" as="geometry"/>
                </mxCell>
                <mxCell id="CgHtUZADvTQVacolw53A-3" value="IAuthenticationClient" style="swimlane;fontStyle=0;align=center;verticalAlign=top;childLayout=stackLayout;horizontal=1;startSize=30;horizontalStack=0;resizeParent=1;resizeParentMax=0;resizeLast=0;collapsible=0;marginBottom=0;html=1;" parent="PNC22y-YUvZ2O8BG3Lub-1" vertex="1">
                    <mxGeometry x="900" y="82" width="370" height="38" as="geometry"/>
                </mxCell>
                <mxCell id="CgHtUZADvTQVacolw53A-4" value="" style="line;strokeWidth=1;fillColor=none;align=left;verticalAlign=middle;spacingTop=-1;spacingLeft=3;spacingRight=3;rotatable=0;labelPosition=right;points=[];portConstraint=eastwest;" parent="CgHtUZADvTQVacolw53A-3" vertex="1">
                    <mxGeometry y="30" width="370" height="8" as="geometry"/>
                </mxCell>
                <mxCell id="AvV4d_TGDyfYby042sXa-0" value="IUserRepository" style="swimlane;fontStyle=0;align=center;verticalAlign=top;childLayout=stackLayout;horizontal=1;startSize=30;horizontalStack=0;resizeParent=1;resizeParentMax=0;resizeLast=0;collapsible=0;marginBottom=0;html=1;" parent="PNC22y-YUvZ2O8BG3Lub-1" vertex="1">
                    <mxGeometry x="900" y="340" width="340" height="38" as="geometry"/>
                </mxCell>
                <mxCell id="AvV4d_TGDyfYby042sXa-1" value="" style="line;strokeWidth=1;fillColor=none;align=left;verticalAlign=middle;spacingTop=-1;spacingLeft=3;spacingRight=3;rotatable=0;labelPosition=right;points=[];portConstraint=eastwest;" parent="AvV4d_TGDyfYby042sXa-0" vertex="1">
                    <mxGeometry y="30" width="340" height="8" as="geometry"/>
                </mxCell>
                <mxCell id="K_mYDwtpnmWMI_1V_JY_-4" value="PostgresUserRepository" style="swimlane;fontStyle=0;align=center;verticalAlign=top;childLayout=stackLayout;horizontal=1;startSize=30;horizontalStack=0;resizeParent=1;resizeParentMax=0;resizeLast=0;collapsible=0;marginBottom=0;html=1;" parent="PNC22y-YUvZ2O8BG3Lub-1" vertex="1">
                    <mxGeometry x="1350" y="340" width="340" height="38" as="geometry"/>
                </mxCell>
                <mxCell id="K_mYDwtpnmWMI_1V_JY_-5" value="" style="line;strokeWidth=1;fillColor=none;align=left;verticalAlign=middle;spacingTop=-1;spacingLeft=3;spacingRight=3;rotatable=0;labelPosition=right;points=[];portConstraint=eastwest;" parent="K_mYDwtpnmWMI_1V_JY_-4" vertex="1">
                    <mxGeometry y="30" width="340" height="8" as="geometry"/>
                </mxCell>
                <mxCell id="K_mYDwtpnmWMI_1V_JY_-12" style="edgeStyle=none;html=1;exitX=0;exitY=0.5;exitDx=0;exitDy=0;entryX=1;entryY=0.5;entryDx=0;entryDy=0;endArrow=block;endFill=0;endSize=12;dashed=1;" parent="PNC22y-YUvZ2O8BG3Lub-1" source="K_mYDwtpnmWMI_1V_JY_-4" target="AvV4d_TGDyfYby042sXa-0" edge="1">
                    <mxGeometry relative="1" as="geometry">
                        <mxPoint x="1350" y="318" as="sourcePoint"/>
                        <mxPoint x="1240" y="310" as="targetPoint"/>
                    </mxGeometry>
                </mxCell>
                <mxCell id="K_mYDwtpnmWMI_1V_JY_-16" style="edgeStyle=none;html=1;exitX=1;exitY=0.5;exitDx=0;exitDy=0;entryX=0;entryY=0.5;entryDx=0;entryDy=0;dashed=1;endArrow=open;endFill=0;endSize=12;" parent="PNC22y-YUvZ2O8BG3Lub-1" source="K_mYDwtpnmWMI_1V_JY_-4" target="CgHtUZADvTQVacolw53A-0" edge="1">
                    <mxGeometry relative="1" as="geometry">
                        <mxPoint x="1690" y="318" as="sourcePoint"/>
                    </mxGeometry>
                </mxCell>
                <mxCell id="K_mYDwtpnmWMI_1V_JY_-17" value="User" style="swimlane;fontStyle=0;align=center;verticalAlign=top;childLayout=stackLayout;horizontal=1;startSize=30;horizontalStack=0;resizeParent=1;resizeParentMax=0;resizeLast=0;collapsible=0;marginBottom=0;html=1;" parent="PNC22y-YUvZ2O8BG3Lub-1" vertex="1">
                    <mxGeometry x="990" y="440" width="160" height="38" as="geometry"/>
                </mxCell>
                <mxCell id="K_mYDwtpnmWMI_1V_JY_-21" value="" style="line;strokeWidth=1;fillColor=none;align=left;verticalAlign=middle;spacingTop=-1;spacingLeft=3;spacingRight=3;rotatable=0;labelPosition=right;points=[];portConstraint=eastwest;" parent="K_mYDwtpnmWMI_1V_JY_-17" vertex="1">
                    <mxGeometry y="30" width="160" height="8" as="geometry"/>
                </mxCell>
                <mxCell id="JRm0syThjr4UIF79tNn6-0" style="edgeStyle=none;html=1;entryX=0.5;entryY=0;entryDx=0;entryDy=0;dashed=1;endArrow=open;endFill=0;endSize=12;exitX=0.5;exitY=1;exitDx=0;exitDy=0;" parent="PNC22y-YUvZ2O8BG3Lub-1" source="AvV4d_TGDyfYby042sXa-0" target="K_mYDwtpnmWMI_1V_JY_-17" edge="1">
                    <mxGeometry relative="1" as="geometry">
                        <mxPoint x="1070" y="420" as="sourcePoint"/>
                    </mxGeometry>
                </mxCell>
                <mxCell id="JRm0syThjr4UIF79tNn6-1" value="IUserRepository" style="swimlane;fontStyle=0;align=center;verticalAlign=top;childLayout=stackLayout;horizontal=1;startSize=30;horizontalStack=0;resizeParent=1;resizeParentMax=0;resizeLast=0;collapsible=0;marginBottom=0;html=1;" parent="PNC22y-YUvZ2O8BG3Lub-1" vertex="1">
                    <mxGeometry x="80" y="880" width="350" height="158" as="geometry"/>
                </mxCell>
                <mxCell id="JRm0syThjr4UIF79tNn6-2" value="" style="line;strokeWidth=1;fillColor=none;align=left;verticalAlign=middle;spacingTop=-1;spacingLeft=3;spacingRight=3;rotatable=0;labelPosition=right;points=[];portConstraint=eastwest;" parent="JRm0syThjr4UIF79tNn6-1" vertex="1">
                    <mxGeometry y="30" width="350" height="8" as="geometry"/>
                </mxCell>
                <mxCell id="JRm0syThjr4UIF79tNn6-3" value="+ create" style="text;html=1;strokeColor=none;fillColor=none;align=left;verticalAlign=middle;spacingLeft=4;spacingRight=4;overflow=hidden;rotatable=0;points=[[0,0.5],[1,0.5]];portConstraint=eastwest;" parent="JRm0syThjr4UIF79tNn6-1" vertex="1">
                    <mxGeometry y="38" width="350" height="20" as="geometry"/>
                </mxCell>
                <mxCell id="JRm0syThjr4UIF79tNn6-4" value="+ update(user)" style="text;html=1;strokeColor=none;fillColor=none;align=left;verticalAlign=middle;spacingLeft=4;spacingRight=4;overflow=hidden;rotatable=0;points=[[0,0.5],[1,0.5]];portConstraint=eastwest;" parent="JRm0syThjr4UIF79tNn6-1" vertex="1">
                    <mxGeometry y="58" width="350" height="20" as="geometry"/>
                </mxCell>
                <mxCell id="JRm0syThjr4UIF79tNn6-5" value="+ delete(id)" style="text;html=1;strokeColor=none;fillColor=none;align=left;verticalAlign=middle;spacingLeft=4;spacingRight=4;overflow=hidden;rotatable=0;points=[[0,0.5],[1,0.5]];portConstraint=eastwest;" parent="JRm0syThjr4UIF79tNn6-1" vertex="1">
                    <mxGeometry y="78" width="350" height="20" as="geometry"/>
                </mxCell>
                <mxCell id="JRm0syThjr4UIF79tNn6-6" value="+ findById(id) : User" style="text;html=1;strokeColor=none;fillColor=none;align=left;verticalAlign=middle;spacingLeft=4;spacingRight=4;overflow=hidden;rotatable=0;points=[[0,0.5],[1,0.5]];portConstraint=eastwest;" parent="JRm0syThjr4UIF79tNn6-1" vertex="1">
                    <mxGeometry y="98" width="350" height="20" as="geometry"/>
                </mxCell>
                <mxCell id="JRm0syThjr4UIF79tNn6-8" value="+ findByProfileId(profileId) : User" style="text;html=1;strokeColor=none;fillColor=none;align=left;verticalAlign=middle;spacingLeft=4;spacingRight=4;overflow=hidden;rotatable=0;points=[[0,0.5],[1,0.5]];portConstraint=eastwest;" parent="JRm0syThjr4UIF79tNn6-1" vertex="1">
                    <mxGeometry y="118" width="350" height="20" as="geometry"/>
                </mxCell>
                <mxCell id="JRm0syThjr4UIF79tNn6-7" value="+ findByAuthenticationProviderId(authenticatedId) : User" style="text;html=1;strokeColor=none;fillColor=none;align=left;verticalAlign=middle;spacingLeft=4;spacingRight=4;overflow=hidden;rotatable=0;points=[[0,0.5],[1,0.5]];portConstraint=eastwest;" parent="JRm0syThjr4UIF79tNn6-1" vertex="1">
                    <mxGeometry y="138" width="350" height="20" as="geometry"/>
                </mxCell>
                <mxCell id="JRm0syThjr4UIF79tNn6-9" value="PostgresUserRepository" style="swimlane;fontStyle=0;align=center;verticalAlign=top;childLayout=stackLayout;horizontal=1;startSize=30;horizontalStack=0;resizeParent=1;resizeParentMax=0;resizeLast=0;collapsible=0;marginBottom=0;html=1;" parent="PNC22y-YUvZ2O8BG3Lub-1" vertex="1">
                    <mxGeometry x="520" y="880" width="350" height="158" as="geometry"/>
                </mxCell>
                <mxCell id="JRm0syThjr4UIF79tNn6-10" value="" style="line;strokeWidth=1;fillColor=none;align=left;verticalAlign=middle;spacingTop=-1;spacingLeft=3;spacingRight=3;rotatable=0;labelPosition=right;points=[];portConstraint=eastwest;" parent="JRm0syThjr4UIF79tNn6-9" vertex="1">
                    <mxGeometry y="30" width="350" height="8" as="geometry"/>
                </mxCell>
                <mxCell id="JRm0syThjr4UIF79tNn6-11" value="+ create" style="text;html=1;strokeColor=none;fillColor=none;align=left;verticalAlign=middle;spacingLeft=4;spacingRight=4;overflow=hidden;rotatable=0;points=[[0,0.5],[1,0.5]];portConstraint=eastwest;" parent="JRm0syThjr4UIF79tNn6-9" vertex="1">
                    <mxGeometry y="38" width="350" height="20" as="geometry"/>
                </mxCell>
                <mxCell id="JRm0syThjr4UIF79tNn6-12" value="+ update(snsUser)" style="text;html=1;strokeColor=none;fillColor=none;align=left;verticalAlign=middle;spacingLeft=4;spacingRight=4;overflow=hidden;rotatable=0;points=[[0,0.5],[1,0.5]];portConstraint=eastwest;" parent="JRm0syThjr4UIF79tNn6-9" vertex="1">
                    <mxGeometry y="58" width="350" height="20" as="geometry"/>
                </mxCell>
                <mxCell id="JRm0syThjr4UIF79tNn6-13" value="+ delete(id)" style="text;html=1;strokeColor=none;fillColor=none;align=left;verticalAlign=middle;spacingLeft=4;spacingRight=4;overflow=hidden;rotatable=0;points=[[0,0.5],[1,0.5]];portConstraint=eastwest;" parent="JRm0syThjr4UIF79tNn6-9" vertex="1">
                    <mxGeometry y="78" width="350" height="20" as="geometry"/>
                </mxCell>
                <mxCell id="cayvMZ6TEEsKmkzw2R-5-0" value="+ findById(id) : User" style="text;html=1;strokeColor=none;fillColor=none;align=left;verticalAlign=middle;spacingLeft=4;spacingRight=4;overflow=hidden;rotatable=0;points=[[0,0.5],[1,0.5]];portConstraint=eastwest;" parent="JRm0syThjr4UIF79tNn6-9" vertex="1">
                    <mxGeometry y="98" width="350" height="20" as="geometry"/>
                </mxCell>
                <mxCell id="cayvMZ6TEEsKmkzw2R-5-2" value="+ findByAuthenticationProviderId(authenticatedId) : User" style="text;html=1;strokeColor=none;fillColor=none;align=left;verticalAlign=middle;spacingLeft=4;spacingRight=4;overflow=hidden;rotatable=0;points=[[0,0.5],[1,0.5]];portConstraint=eastwest;" parent="JRm0syThjr4UIF79tNn6-9" vertex="1">
                    <mxGeometry y="118" width="350" height="20" as="geometry"/>
                </mxCell>
                <mxCell id="cayvMZ6TEEsKmkzw2R-5-1" value="+ findByProfileId(profileId) : User" style="text;html=1;strokeColor=none;fillColor=none;align=left;verticalAlign=middle;spacingLeft=4;spacingRight=4;overflow=hidden;rotatable=0;points=[[0,0.5],[1,0.5]];portConstraint=eastwest;" parent="JRm0syThjr4UIF79tNn6-9" vertex="1">
                    <mxGeometry y="138" width="350" height="20" as="geometry"/>
                </mxCell>
                <mxCell id="JRm0syThjr4UIF79tNn6-17" style="edgeStyle=none;html=1;exitX=0;exitY=0.5;exitDx=0;exitDy=0;dashed=1;endArrow=block;endFill=0;endSize=12;" parent="PNC22y-YUvZ2O8BG3Lub-1" source="JRm0syThjr4UIF79tNn6-13" target="JRm0syThjr4UIF79tNn6-5" edge="1">
                    <mxGeometry relative="1" as="geometry"/>
                </mxCell>
                <mxCell id="DG_iNYj0eU7iP5NGtfgF-1" value="Entity" style="swimlane;fontStyle=0;align=center;verticalAlign=top;childLayout=stackLayout;horizontal=1;startSize=30;horizontalStack=0;resizeParent=1;resizeParentMax=0;resizeLast=0;collapsible=0;marginBottom=0;html=1;" parent="PNC22y-YUvZ2O8BG3Lub-1" vertex="1">
                    <mxGeometry x="390" y="460" width="140" height="38" as="geometry"/>
                </mxCell>
                <mxCell id="DG_iNYj0eU7iP5NGtfgF-2" value="" style="line;strokeWidth=1;fillColor=none;align=left;verticalAlign=middle;spacingTop=-1;spacingLeft=3;spacingRight=3;rotatable=0;labelPosition=right;points=[];portConstraint=eastwest;" parent="DG_iNYj0eU7iP5NGtfgF-1" vertex="1">
                    <mxGeometry y="30" width="140" height="8" as="geometry"/>
                </mxCell>
                <mxCell id="DG_iNYj0eU7iP5NGtfgF-3" style="edgeStyle=none;html=1;exitX=0.5;exitY=1;exitDx=0;exitDy=0;entryX=0.5;entryY=0;entryDx=0;entryDy=0;dashed=1;endArrow=block;endFill=0;endSize=12;" parent="PNC22y-YUvZ2O8BG3Lub-1" source="PNC22y-YUvZ2O8BG3Lub-6" target="DG_iNYj0eU7iP5NGtfgF-1" edge="1">
                    <mxGeometry relative="1" as="geometry"/>
                </mxCell>
                <mxCell id="VmmonVza-kJVz7VxyK7E-0" value="User" style="swimlane;fontStyle=0;align=center;verticalAlign=top;childLayout=stackLayout;horizontal=1;startSize=30;horizontalStack=0;resizeParent=1;resizeParentMax=0;resizeLast=0;collapsible=0;marginBottom=0;html=1;" parent="PNC22y-YUvZ2O8BG3Lub-1" vertex="1">
                    <mxGeometry x="170" y="1090" width="160" height="98" as="geometry"/>
                </mxCell>
                <mxCell id="VmmonVza-kJVz7VxyK7E-1" value="+ profileId" style="text;html=1;strokeColor=none;fillColor=none;align=left;verticalAlign=middle;spacingLeft=4;spacingRight=4;overflow=hidden;rotatable=0;points=[[0,0.5],[1,0.5]];portConstraint=eastwest;" parent="VmmonVza-kJVz7VxyK7E-0" vertex="1">
                    <mxGeometry y="30" width="160" height="20" as="geometry"/>
                </mxCell>
                <mxCell id="VmmonVza-kJVz7VxyK7E-2" value="+ authenticationProviderId" style="text;html=1;strokeColor=none;fillColor=none;align=left;verticalAlign=middle;spacingLeft=4;spacingRight=4;overflow=hidden;rotatable=0;points=[[0,0.5],[1,0.5]];portConstraint=eastwest;" parent="VmmonVza-kJVz7VxyK7E-0" vertex="1">
                    <mxGeometry y="50" width="160" height="20" as="geometry"/>
                </mxCell>
                <mxCell id="VmmonVza-kJVz7VxyK7E-3" value="+ userName" style="text;html=1;strokeColor=none;fillColor=none;align=left;verticalAlign=middle;spacingLeft=4;spacingRight=4;overflow=hidden;rotatable=0;points=[[0,0.5],[1,0.5]];portConstraint=eastwest;" parent="VmmonVza-kJVz7VxyK7E-0" vertex="1">
                    <mxGeometry y="70" width="160" height="20" as="geometry"/>
                </mxCell>
                <mxCell id="VmmonVza-kJVz7VxyK7E-4" value="" style="line;strokeWidth=1;fillColor=none;align=left;verticalAlign=middle;spacingTop=-1;spacingLeft=3;spacingRight=3;rotatable=0;labelPosition=right;points=[];portConstraint=eastwest;" parent="VmmonVza-kJVz7VxyK7E-0" vertex="1">
                    <mxGeometry y="90" width="160" height="8" as="geometry"/>
                </mxCell>
                <mxCell id="VmmonVza-kJVz7VxyK7E-5" value="Entity" style="swimlane;fontStyle=0;align=center;verticalAlign=top;childLayout=stackLayout;horizontal=1;startSize=30;horizontalStack=0;resizeParent=1;resizeParentMax=0;resizeLast=0;collapsible=0;marginBottom=0;html=1;" parent="PNC22y-YUvZ2O8BG3Lub-1" vertex="1">
                    <mxGeometry x="180" y="1250" width="140" height="38" as="geometry"/>
                </mxCell>
                <mxCell id="VmmonVza-kJVz7VxyK7E-6" value="" style="line;strokeWidth=1;fillColor=none;align=left;verticalAlign=middle;spacingTop=-1;spacingLeft=3;spacingRight=3;rotatable=0;labelPosition=right;points=[];portConstraint=eastwest;" parent="VmmonVza-kJVz7VxyK7E-5" vertex="1">
                    <mxGeometry y="30" width="140" height="8" as="geometry"/>
                </mxCell>
                <mxCell id="VmmonVza-kJVz7VxyK7E-7" style="edgeStyle=none;html=1;exitX=0.5;exitY=1;exitDx=0;exitDy=0;entryX=0.5;entryY=0;entryDx=0;entryDy=0;dashed=1;endArrow=block;endFill=0;endSize=12;" parent="PNC22y-YUvZ2O8BG3Lub-1" source="VmmonVza-kJVz7VxyK7E-0" target="VmmonVza-kJVz7VxyK7E-5" edge="1">
                    <mxGeometry relative="1" as="geometry"/>
                </mxCell>
                <mxCell id="VmmonVza-kJVz7VxyK7E-8" style="edgeStyle=none;html=1;entryX=0.5;entryY=0;entryDx=0;entryDy=0;endArrow=none;endFill=0;endSize=12;" parent="PNC22y-YUvZ2O8BG3Lub-1" target="VmmonVza-kJVz7VxyK7E-0" edge="1">
                    <mxGeometry relative="1" as="geometry">
                        <mxPoint x="250" y="1040" as="sourcePoint"/>
                    </mxGeometry>
                </mxCell>
                <mxCell id="VmmonVza-kJVz7VxyK7E-9" value="SnsUserRegistrationAction" style="swimlane;fontStyle=0;align=center;verticalAlign=top;childLayout=stackLayout;horizontal=1;startSize=30;horizontalStack=0;resizeParent=1;resizeParentMax=0;resizeLast=0;collapsible=0;marginBottom=0;html=1;" parent="PNC22y-YUvZ2O8BG3Lub-1" vertex="1">
                    <mxGeometry x="80" y="640" width="200" height="78" as="geometry"/>
                </mxCell>
                <mxCell id="VmmonVza-kJVz7VxyK7E-10" value="" style="line;strokeWidth=1;fillColor=none;align=left;verticalAlign=middle;spacingTop=-1;spacingLeft=3;spacingRight=3;rotatable=0;labelPosition=right;points=[];portConstraint=eastwest;" parent="VmmonVza-kJVz7VxyK7E-9" vertex="1">
                    <mxGeometry y="30" width="200" height="8" as="geometry"/>
                </mxCell>
                <mxCell id="VmmonVza-kJVz7VxyK7E-11" value="+ register : boolean" style="text;html=1;strokeColor=none;fillColor=none;align=left;verticalAlign=middle;spacingLeft=4;spacingRight=4;overflow=hidden;rotatable=0;points=[[0,0.5],[1,0.5]];portConstraint=eastwest;" parent="VmmonVza-kJVz7VxyK7E-9" vertex="1">
                    <mxGeometry y="38" width="200" height="20" as="geometry"/>
                </mxCell>
                <mxCell id="lp4UJ0ZiLZO96BVi_XPw-0" value="+ delete : boolean" style="text;html=1;strokeColor=none;fillColor=none;align=left;verticalAlign=middle;spacingLeft=4;spacingRight=4;overflow=hidden;rotatable=0;points=[[0,0.5],[1,0.5]];portConstraint=eastwest;" parent="VmmonVza-kJVz7VxyK7E-9" vertex="1">
                    <mxGeometry y="58" width="200" height="20" as="geometry"/>
                </mxCell>
                <mxCell id="lp4UJ0ZiLZO96BVi_XPw-1" value="IUserRegistrar" style="swimlane;fontStyle=0;align=center;verticalAlign=top;childLayout=stackLayout;horizontal=1;startSize=30;horizontalStack=0;resizeParent=1;resizeParentMax=0;resizeLast=0;collapsible=0;marginBottom=0;html=1;" parent="PNC22y-YUvZ2O8BG3Lub-1" vertex="1">
                    <mxGeometry x="375" y="640" width="170" height="78" as="geometry"/>
                </mxCell>
                <mxCell id="lp4UJ0ZiLZO96BVi_XPw-2" value="" style="line;strokeWidth=1;fillColor=none;align=left;verticalAlign=middle;spacingTop=-1;spacingLeft=3;spacingRight=3;rotatable=0;labelPosition=right;points=[];portConstraint=eastwest;" parent="lp4UJ0ZiLZO96BVi_XPw-1" vertex="1">
                    <mxGeometry y="30" width="170" height="8" as="geometry"/>
                </mxCell>
                <mxCell id="9g0HJ8j3KMnNtdc1Vj9v-0" value="+ register : boolean" style="text;html=1;strokeColor=none;fillColor=none;align=left;verticalAlign=middle;spacingLeft=4;spacingRight=4;overflow=hidden;rotatable=0;points=[[0,0.5],[1,0.5]];portConstraint=eastwest;" parent="lp4UJ0ZiLZO96BVi_XPw-1" vertex="1">
                    <mxGeometry y="38" width="170" height="20" as="geometry"/>
                </mxCell>
                <mxCell id="9g0HJ8j3KMnNtdc1Vj9v-1" value="+ delete : boolean" style="text;html=1;strokeColor=none;fillColor=none;align=left;verticalAlign=middle;spacingLeft=4;spacingRight=4;overflow=hidden;rotatable=0;points=[[0,0.5],[1,0.5]];portConstraint=eastwest;" parent="lp4UJ0ZiLZO96BVi_XPw-1" vertex="1">
                    <mxGeometry y="58" width="170" height="20" as="geometry"/>
                </mxCell>
                <mxCell id="9g0HJ8j3KMnNtdc1Vj9v-2" value="UserRegistrar" style="swimlane;fontStyle=0;align=center;verticalAlign=top;childLayout=stackLayout;horizontal=1;startSize=30;horizontalStack=0;resizeParent=1;resizeParentMax=0;resizeLast=0;collapsible=0;marginBottom=0;html=1;" parent="PNC22y-YUvZ2O8BG3Lub-1" vertex="1">
                    <mxGeometry x="620" y="640" width="170" height="78" as="geometry"/>
                </mxCell>
                <mxCell id="9g0HJ8j3KMnNtdc1Vj9v-3" value="" style="line;strokeWidth=1;fillColor=none;align=left;verticalAlign=middle;spacingTop=-1;spacingLeft=3;spacingRight=3;rotatable=0;labelPosition=right;points=[];portConstraint=eastwest;" parent="9g0HJ8j3KMnNtdc1Vj9v-2" vertex="1">
                    <mxGeometry y="30" width="170" height="8" as="geometry"/>
                </mxCell>
                <mxCell id="9g0HJ8j3KMnNtdc1Vj9v-4" value="+ register : boolean" style="text;html=1;strokeColor=none;fillColor=none;align=left;verticalAlign=middle;spacingLeft=4;spacingRight=4;overflow=hidden;rotatable=0;points=[[0,0.5],[1,0.5]];portConstraint=eastwest;" parent="9g0HJ8j3KMnNtdc1Vj9v-2" vertex="1">
                    <mxGeometry y="38" width="170" height="20" as="geometry"/>
                </mxCell>
                <mxCell id="9g0HJ8j3KMnNtdc1Vj9v-5" value="+ delete : boolean" style="text;html=1;strokeColor=none;fillColor=none;align=left;verticalAlign=middle;spacingLeft=4;spacingRight=4;overflow=hidden;rotatable=0;points=[[0,0.5],[1,0.5]];portConstraint=eastwest;" parent="9g0HJ8j3KMnNtdc1Vj9v-2" vertex="1">
                    <mxGeometry y="58" width="170" height="20" as="geometry"/>
                </mxCell>
                <mxCell id="9g0HJ8j3KMnNtdc1Vj9v-6" value="PostgresClientProvider" style="swimlane;fontStyle=0;align=center;verticalAlign=top;childLayout=stackLayout;horizontal=1;startSize=30;horizontalStack=0;resizeParent=1;resizeParentMax=0;resizeLast=0;collapsible=0;marginBottom=0;html=1;" parent="PNC22y-YUvZ2O8BG3Lub-1" vertex="1">
                    <mxGeometry x="1760" y="650" width="180" height="58" as="geometry"/>
                </mxCell>
                <mxCell id="9g0HJ8j3KMnNtdc1Vj9v-7" value="" style="line;strokeWidth=1;fillColor=none;align=left;verticalAlign=middle;spacingTop=-1;spacingLeft=3;spacingRight=3;rotatable=0;labelPosition=right;points=[];portConstraint=eastwest;" parent="9g0HJ8j3KMnNtdc1Vj9v-6" vertex="1">
                    <mxGeometry y="30" width="180" height="8" as="geometry"/>
                </mxCell>
                <mxCell id="9g0HJ8j3KMnNtdc1Vj9v-8" value="+ get" style="text;html=1;strokeColor=none;fillColor=none;align=left;verticalAlign=middle;spacingLeft=4;spacingRight=4;overflow=hidden;rotatable=0;points=[[0,0.5],[1,0.5]];portConstraint=eastwest;" parent="9g0HJ8j3KMnNtdc1Vj9v-6" vertex="1">
                    <mxGeometry y="38" width="180" height="20" as="geometry"/>
                </mxCell>
                <mxCell id="9g0HJ8j3KMnNtdc1Vj9v-9" value="IUserRepository" style="swimlane;fontStyle=0;align=center;verticalAlign=top;childLayout=stackLayout;horizontal=1;startSize=30;horizontalStack=0;resizeParent=1;resizeParentMax=0;resizeLast=0;collapsible=0;marginBottom=0;html=1;" parent="PNC22y-YUvZ2O8BG3Lub-1" vertex="1">
                    <mxGeometry x="900" y="660" width="340" height="38" as="geometry"/>
                </mxCell>
                <mxCell id="9g0HJ8j3KMnNtdc1Vj9v-10" value="" style="line;strokeWidth=1;fillColor=none;align=left;verticalAlign=middle;spacingTop=-1;spacingLeft=3;spacingRight=3;rotatable=0;labelPosition=right;points=[];portConstraint=eastwest;" parent="9g0HJ8j3KMnNtdc1Vj9v-9" vertex="1">
                    <mxGeometry y="30" width="340" height="8" as="geometry"/>
                </mxCell>
                <mxCell id="9g0HJ8j3KMnNtdc1Vj9v-11" value="PostgresUserRepository" style="swimlane;fontStyle=0;align=center;verticalAlign=top;childLayout=stackLayout;horizontal=1;startSize=30;horizontalStack=0;resizeParent=1;resizeParentMax=0;resizeLast=0;collapsible=0;marginBottom=0;html=1;" parent="PNC22y-YUvZ2O8BG3Lub-1" vertex="1">
                    <mxGeometry x="1350" y="660" width="340" height="38" as="geometry"/>
                </mxCell>
                <mxCell id="9g0HJ8j3KMnNtdc1Vj9v-12" value="" style="line;strokeWidth=1;fillColor=none;align=left;verticalAlign=middle;spacingTop=-1;spacingLeft=3;spacingRight=3;rotatable=0;labelPosition=right;points=[];portConstraint=eastwest;" parent="9g0HJ8j3KMnNtdc1Vj9v-11" vertex="1">
                    <mxGeometry y="30" width="340" height="8" as="geometry"/>
                </mxCell>
                <mxCell id="9g0HJ8j3KMnNtdc1Vj9v-13" style="edgeStyle=none;html=1;exitX=0;exitY=0.5;exitDx=0;exitDy=0;entryX=1;entryY=0.5;entryDx=0;entryDy=0;endArrow=block;endFill=0;endSize=12;dashed=1;" parent="PNC22y-YUvZ2O8BG3Lub-1" source="9g0HJ8j3KMnNtdc1Vj9v-11" target="9g0HJ8j3KMnNtdc1Vj9v-9" edge="1">
                    <mxGeometry relative="1" as="geometry">
                        <mxPoint x="1350" y="638" as="sourcePoint"/>
                        <mxPoint x="1240" y="630" as="targetPoint"/>
                    </mxGeometry>
                </mxCell>
                <mxCell id="9g0HJ8j3KMnNtdc1Vj9v-14" style="edgeStyle=none;html=1;exitX=1;exitY=0.5;exitDx=0;exitDy=0;entryX=0;entryY=0.5;entryDx=0;entryDy=0;dashed=1;endArrow=open;endFill=0;endSize=12;" parent="PNC22y-YUvZ2O8BG3Lub-1" source="9g0HJ8j3KMnNtdc1Vj9v-11" target="9g0HJ8j3KMnNtdc1Vj9v-6" edge="1">
                    <mxGeometry relative="1" as="geometry">
                        <mxPoint x="1690" y="638" as="sourcePoint"/>
                    </mxGeometry>
                </mxCell>
                <mxCell id="9g0HJ8j3KMnNtdc1Vj9v-15" value="User" style="swimlane;fontStyle=0;align=center;verticalAlign=top;childLayout=stackLayout;horizontal=1;startSize=30;horizontalStack=0;resizeParent=1;resizeParentMax=0;resizeLast=0;collapsible=0;marginBottom=0;html=1;" parent="PNC22y-YUvZ2O8BG3Lub-1" vertex="1">
                    <mxGeometry x="990" y="760" width="160" height="38" as="geometry"/>
                </mxCell>
                <mxCell id="9g0HJ8j3KMnNtdc1Vj9v-16" value="" style="line;strokeWidth=1;fillColor=none;align=left;verticalAlign=middle;spacingTop=-1;spacingLeft=3;spacingRight=3;rotatable=0;labelPosition=right;points=[];portConstraint=eastwest;" parent="9g0HJ8j3KMnNtdc1Vj9v-15" vertex="1">
                    <mxGeometry y="30" width="160" height="8" as="geometry"/>
                </mxCell>
                <mxCell id="9g0HJ8j3KMnNtdc1Vj9v-17" style="edgeStyle=none;html=1;entryX=0.5;entryY=0;entryDx=0;entryDy=0;dashed=1;endArrow=open;endFill=0;endSize=12;exitX=0.5;exitY=1;exitDx=0;exitDy=0;" parent="PNC22y-YUvZ2O8BG3Lub-1" source="9g0HJ8j3KMnNtdc1Vj9v-9" target="9g0HJ8j3KMnNtdc1Vj9v-15" edge="1">
                    <mxGeometry relative="1" as="geometry">
                        <mxPoint x="1070" y="740" as="sourcePoint"/>
                    </mxGeometry>
                </mxCell>
                <mxCell id="9g0HJ8j3KMnNtdc1Vj9v-20" style="edgeStyle=none;html=1;entryX=0;entryY=0.5;entryDx=0;entryDy=0;endArrow=none;endFill=0;endSize=12;" parent="PNC22y-YUvZ2O8BG3Lub-1" target="9g0HJ8j3KMnNtdc1Vj9v-9" edge="1">
                    <mxGeometry relative="1" as="geometry">
                        <mxPoint x="790" y="679" as="sourcePoint"/>
                    </mxGeometry>
                </mxCell>
                <mxCell id="9g0HJ8j3KMnNtdc1Vj9v-21" style="edgeStyle=none;html=1;exitX=1;exitY=0.5;exitDx=0;exitDy=0;entryX=0;entryY=0.5;entryDx=0;entryDy=0;endArrow=none;endFill=0;endSize=12;" parent="PNC22y-YUvZ2O8BG3Lub-1" source="VmmonVza-kJVz7VxyK7E-11" target="9g0HJ8j3KMnNtdc1Vj9v-0" edge="1">
                    <mxGeometry relative="1" as="geometry"/>
                </mxCell>
                <mxCell id="9g0HJ8j3KMnNtdc1Vj9v-22" style="edgeStyle=none;html=1;exitX=0;exitY=0.5;exitDx=0;exitDy=0;entryX=1;entryY=0.5;entryDx=0;entryDy=0;endArrow=block;endFill=0;endSize=12;dashed=1;" parent="PNC22y-YUvZ2O8BG3Lub-1" source="9g0HJ8j3KMnNtdc1Vj9v-4" target="9g0HJ8j3KMnNtdc1Vj9v-0" edge="1">
                    <mxGeometry relative="1" as="geometry"/>
                </mxCell>
                <mxCell id="QnlcoHv7iyvOL2-Xf5XT-3" value="SnsUser" style="swimlane;fontStyle=0;align=center;verticalAlign=top;childLayout=stackLayout;horizontal=1;startSize=30;horizontalStack=0;resizeParent=1;resizeParentMax=0;resizeLast=0;collapsible=0;marginBottom=0;html=1;" parent="PNC22y-YUvZ2O8BG3Lub-1" vertex="1">
                    <mxGeometry x="80" y="1360" width="160" height="58" as="geometry"/>
                </mxCell>
                <mxCell id="QnlcoHv7iyvOL2-Xf5XT-6" value="+ userName" style="text;html=1;strokeColor=none;fillColor=none;align=left;verticalAlign=middle;spacingLeft=4;spacingRight=4;overflow=hidden;rotatable=0;points=[[0,0.5],[1,0.5]];portConstraint=eastwest;" parent="QnlcoHv7iyvOL2-Xf5XT-3" vertex="1">
                    <mxGeometry y="30" width="160" height="20" as="geometry"/>
                </mxCell>
                <mxCell id="QnlcoHv7iyvOL2-Xf5XT-7" value="" style="line;strokeWidth=1;fillColor=none;align=left;verticalAlign=middle;spacingTop=-1;spacingLeft=3;spacingRight=3;rotatable=0;labelPosition=right;points=[];portConstraint=eastwest;" parent="QnlcoHv7iyvOL2-Xf5XT-3" vertex="1">
                    <mxGeometry y="50" width="160" height="8" as="geometry"/>
                </mxCell>
            </root>
        </mxGraphModel>
    </diagram>
    <diagram id="P8e3dbhKrLwSjuZW47kj" name="FirebaseModule">
        <mxGraphModel dx="1370" dy="522" grid="1" gridSize="10" guides="1" tooltips="1" connect="1" arrows="1" fold="1" page="1" pageScale="1" pageWidth="4681" pageHeight="3300" math="0" shadow="0">
            <root>
                <mxCell id="0"/>
                <mxCell id="1" parent="0"/>
                <mxCell id="VD5NZYlz28YNt6wSvWNU-1" value="FirebaseClient" style="swimlane;fontStyle=0;align=center;verticalAlign=top;childLayout=stackLayout;horizontal=1;startSize=30;horizontalStack=0;resizeParent=1;resizeParentMax=0;resizeLast=0;collapsible=0;marginBottom=0;html=1;" parent="1" vertex="1">
                    <mxGeometry x="80" y="80" width="370" height="138" as="geometry"/>
                </mxCell>
                <mxCell id="bWsSe4teHUD6GDsGaxMM-1" value="- firebaseApiKey" style="text;html=1;strokeColor=none;fillColor=none;align=left;verticalAlign=middle;spacingLeft=4;spacingRight=4;overflow=hidden;rotatable=0;points=[[0,0.5],[1,0.5]];portConstraint=eastwest;" parent="VD5NZYlz28YNt6wSvWNU-1" vertex="1">
                    <mxGeometry y="30" width="370" height="20" as="geometry"/>
                </mxCell>
                <mxCell id="VD5NZYlz28YNt6wSvWNU-2" value="" style="line;strokeWidth=1;fillColor=none;align=left;verticalAlign=middle;spacingTop=-1;spacingLeft=3;spacingRight=3;rotatable=0;labelPosition=right;points=[];portConstraint=eastwest;" parent="VD5NZYlz28YNt6wSvWNU-1" vertex="1">
                    <mxGeometry y="50" width="370" height="8" as="geometry"/>
                </mxCell>
                <mxCell id="0n9HFmvgS8qAQ2_e6wYX-1" value="+ signUp : SignupResponse" style="text;html=1;strokeColor=none;fillColor=none;align=left;verticalAlign=middle;spacingLeft=4;spacingRight=4;overflow=hidden;rotatable=0;points=[[0,0.5],[1,0.5]];portConstraint=eastwest;" parent="VD5NZYlz28YNt6wSvWNU-1" vertex="1">
                    <mxGeometry y="58" width="370" height="20" as="geometry"/>
                </mxCell>
                <mxCell id="0n9HFmvgS8qAQ2_e6wYX-2" value="+ signInWithEmailPassword : SignInWithEmailPasswordResponse" style="text;html=1;strokeColor=none;fillColor=none;align=left;verticalAlign=middle;spacingLeft=4;spacingRight=4;overflow=hidden;rotatable=0;points=[[0,0.5],[1,0.5]];portConstraint=eastwest;" parent="VD5NZYlz28YNt6wSvWNU-1" vertex="1">
                    <mxGeometry y="78" width="370" height="20" as="geometry"/>
                </mxCell>
                <mxCell id="0n9HFmvgS8qAQ2_e6wYX-3" value="+ getUserInformation : GetUserInformationResponse" style="text;html=1;strokeColor=none;fillColor=none;align=left;verticalAlign=middle;spacingLeft=4;spacingRight=4;overflow=hidden;rotatable=0;points=[[0,0.5],[1,0.5]];portConstraint=eastwest;" parent="VD5NZYlz28YNt6wSvWNU-1" vertex="1">
                    <mxGeometry y="98" width="370" height="20" as="geometry"/>
                </mxCell>
                <mxCell id="2RM0MB1RM7LpLNBzBMDw-1" value="+ deleteUser" style="text;html=1;strokeColor=none;fillColor=none;align=left;verticalAlign=middle;spacingLeft=4;spacingRight=4;overflow=hidden;rotatable=0;points=[[0,0.5],[1,0.5]];portConstraint=eastwest;" parent="VD5NZYlz28YNt6wSvWNU-1" vertex="1">
                    <mxGeometry y="118" width="370" height="20" as="geometry"/>
                </mxCell>
                <mxCell id="7iRVprtNaPUB2IKAm9gp-1" value="HttpClient" style="swimlane;fontStyle=0;align=center;verticalAlign=top;childLayout=stackLayout;horizontal=1;startSize=30;horizontalStack=0;resizeParent=1;resizeParentMax=0;resizeLast=0;collapsible=0;marginBottom=0;html=1;" parent="1" vertex="1">
                    <mxGeometry x="530" y="129" width="180" height="38" as="geometry"/>
                </mxCell>
                <mxCell id="7iRVprtNaPUB2IKAm9gp-3" value="" style="line;strokeWidth=1;fillColor=none;align=left;verticalAlign=middle;spacingTop=-1;spacingLeft=3;spacingRight=3;rotatable=0;labelPosition=right;points=[];portConstraint=eastwest;" parent="7iRVprtNaPUB2IKAm9gp-1" vertex="1">
                    <mxGeometry y="30" width="180" height="8" as="geometry"/>
                </mxCell>
                <mxCell id="7iRVprtNaPUB2IKAm9gp-7" value="" style="edgeStyle=none;html=1;entryX=0;entryY=0.5;entryDx=0;entryDy=0;startSize=6;endSize=12;endArrow=none;endFill=0;" parent="1" source="0n9HFmvgS8qAQ2_e6wYX-1" target="7iRVprtNaPUB2IKAm9gp-1" edge="1">
                    <mxGeometry relative="1" as="geometry"/>
                </mxCell>
                <mxCell id="1U2C1WbIB9wAyKqgHvvl-1" value="&lt;span style=&quot;text-align: left;&quot;&gt;SignupResponse&lt;/span&gt;" style="swimlane;fontStyle=0;align=center;verticalAlign=top;childLayout=stackLayout;horizontal=1;startSize=30;horizontalStack=0;resizeParent=1;resizeParentMax=0;resizeLast=0;collapsible=0;marginBottom=0;html=1;" parent="1" vertex="1">
                    <mxGeometry x="80" y="240" width="180" height="38" as="geometry"/>
                </mxCell>
                <mxCell id="1U2C1WbIB9wAyKqgHvvl-2" value="" style="line;strokeWidth=1;fillColor=none;align=left;verticalAlign=middle;spacingTop=-1;spacingLeft=3;spacingRight=3;rotatable=0;labelPosition=right;points=[];portConstraint=eastwest;" parent="1U2C1WbIB9wAyKqgHvvl-1" vertex="1">
                    <mxGeometry y="30" width="180" height="8" as="geometry"/>
                </mxCell>
                <mxCell id="1U2C1WbIB9wAyKqgHvvl-3" value="&lt;span style=&quot;text-align: left;&quot;&gt;SignInWithEmailPasswordResponse&lt;/span&gt;" style="swimlane;fontStyle=0;align=center;verticalAlign=top;childLayout=stackLayout;horizontal=1;startSize=30;horizontalStack=0;resizeParent=1;resizeParentMax=0;resizeLast=0;collapsible=0;marginBottom=0;html=1;" parent="1" vertex="1">
                    <mxGeometry x="80" y="320" width="230" height="38" as="geometry"/>
                </mxCell>
                <mxCell id="1U2C1WbIB9wAyKqgHvvl-4" value="" style="line;strokeWidth=1;fillColor=none;align=left;verticalAlign=middle;spacingTop=-1;spacingLeft=3;spacingRight=3;rotatable=0;labelPosition=right;points=[];portConstraint=eastwest;" parent="1U2C1WbIB9wAyKqgHvvl-3" vertex="1">
                    <mxGeometry y="30" width="230" height="8" as="geometry"/>
                </mxCell>
                <mxCell id="1U2C1WbIB9wAyKqgHvvl-5" value="&lt;span style=&quot;text-align: left;&quot;&gt;GetUserInformationResponse&lt;/span&gt;" style="swimlane;fontStyle=0;align=center;verticalAlign=top;childLayout=stackLayout;horizontal=1;startSize=30;horizontalStack=0;resizeParent=1;resizeParentMax=0;resizeLast=0;collapsible=0;marginBottom=0;html=1;" parent="1" vertex="1">
                    <mxGeometry x="80" y="400" width="180" height="38" as="geometry"/>
                </mxCell>
                <mxCell id="1U2C1WbIB9wAyKqgHvvl-6" value="" style="line;strokeWidth=1;fillColor=none;align=left;verticalAlign=middle;spacingTop=-1;spacingLeft=3;spacingRight=3;rotatable=0;labelPosition=right;points=[];portConstraint=eastwest;" parent="1U2C1WbIB9wAyKqgHvvl-5" vertex="1">
                    <mxGeometry y="30" width="180" height="8" as="geometry"/>
                </mxCell>
            </root>
        </mxGraphModel>
    </diagram>
    <diagram id="8n7TeW0tOY6Klq6mFJBu" name="PostgreSQLModule">
        <mxGraphModel dx="1370" dy="522" grid="1" gridSize="10" guides="1" tooltips="1" connect="1" arrows="1" fold="1" page="1" pageScale="1" pageWidth="4681" pageHeight="3300" math="0" shadow="0">
            <root>
                <mxCell id="0"/>
                <mxCell id="1" parent="0"/>
                <mxCell id="BPi4YgFuCA9cGRB9Jn81-1" value="PostgresClientProvider" style="swimlane;fontStyle=0;align=center;verticalAlign=top;childLayout=stackLayout;horizontal=1;startSize=30;horizontalStack=0;resizeParent=1;resizeParentMax=0;resizeLast=0;collapsible=0;marginBottom=0;html=1;" parent="1" vertex="1">
                    <mxGeometry x="80" y="80" width="180" height="58" as="geometry"/>
                </mxCell>
                <mxCell id="BPi4YgFuCA9cGRB9Jn81-2" value="" style="line;strokeWidth=1;fillColor=none;align=left;verticalAlign=middle;spacingTop=-1;spacingLeft=3;spacingRight=3;rotatable=0;labelPosition=right;points=[];portConstraint=eastwest;" parent="BPi4YgFuCA9cGRB9Jn81-1" vertex="1">
                    <mxGeometry y="30" width="180" height="8" as="geometry"/>
                </mxCell>
                <mxCell id="0w8WluLrweintLvQE64F-1" value="+ get" style="text;html=1;strokeColor=none;fillColor=none;align=left;verticalAlign=middle;spacingLeft=4;spacingRight=4;overflow=hidden;rotatable=0;points=[[0,0.5],[1,0.5]];portConstraint=eastwest;" parent="BPi4YgFuCA9cGRB9Jn81-1" vertex="1">
                    <mxGeometry y="38" width="180" height="20" as="geometry"/>
                </mxCell>
            </root>
        </mxGraphModel>
    </diagram>
    <diagram id="xdOfNjIYcRjN1igFE0Nn" name="PostModule">
        <mxGraphModel dx="1582" dy="779" grid="1" gridSize="10" guides="1" tooltips="1" connect="1" arrows="1" fold="1" page="1" pageScale="1" pageWidth="4681" pageHeight="3300" math="0" shadow="0">
            <root>
                <mxCell id="0"/>
                <mxCell id="1" parent="0"/>
                <mxCell id="uWTmqrbJPEkyvDtqsmFR-1" value="PostInteractor" style="swimlane;fontStyle=0;align=center;verticalAlign=top;childLayout=stackLayout;horizontal=1;startSize=30;horizontalStack=0;resizeParent=1;resizeParentMax=0;resizeLast=0;collapsible=0;marginBottom=0;html=1;" parent="1" vertex="1">
                    <mxGeometry x="890" y="460" width="240" height="118" as="geometry"/>
                </mxCell>
                <mxCell id="uWTmqrbJPEkyvDtqsmFR-5" value="" style="line;strokeWidth=1;fillColor=none;align=left;verticalAlign=middle;spacingTop=-1;spacingLeft=3;spacingRight=3;rotatable=0;labelPosition=right;points=[];portConstraint=eastwest;" parent="uWTmqrbJPEkyvDtqsmFR-1" vertex="1">
                    <mxGeometry y="30" width="240" height="8" as="geometry"/>
                </mxCell>
                <mxCell id="uWTmqrbJPEkyvDtqsmFR-9" value="+ post(userId, releaseId, content) : postId" style="text;html=1;strokeColor=none;fillColor=none;align=left;verticalAlign=middle;spacingLeft=4;spacingRight=4;overflow=hidden;rotatable=0;points=[[0,0.5],[1,0.5]];portConstraint=eastwest;" parent="uWTmqrbJPEkyvDtqsmFR-1" vertex="1">
                    <mxGeometry y="38" width="240" height="20" as="geometry"/>
                </mxCell>
                <mxCell id="uWTmqrbJPEkyvDtqsmFR-10" value="+ reply" style="text;html=1;strokeColor=none;fillColor=none;align=left;verticalAlign=middle;spacingLeft=4;spacingRight=4;overflow=hidden;rotatable=0;points=[[0,0.5],[1,0.5]];portConstraint=eastwest;" parent="uWTmqrbJPEkyvDtqsmFR-1" vertex="1">
                    <mxGeometry y="58" width="240" height="20" as="geometry"/>
                </mxCell>
                <mxCell id="uWTmqrbJPEkyvDtqsmFR-11" value="+ repost" style="text;html=1;strokeColor=none;fillColor=none;align=left;verticalAlign=middle;spacingLeft=4;spacingRight=4;overflow=hidden;rotatable=0;points=[[0,0.5],[1,0.5]];portConstraint=eastwest;" parent="uWTmqrbJPEkyvDtqsmFR-1" vertex="1">
                    <mxGeometry y="78" width="240" height="20" as="geometry"/>
                </mxCell>
                <mxCell id="uWTmqrbJPEkyvDtqsmFR-12" value="+ giveReaction" style="text;html=1;strokeColor=none;fillColor=none;align=left;verticalAlign=middle;spacingLeft=4;spacingRight=4;overflow=hidden;rotatable=0;points=[[0,0.5],[1,0.5]];portConstraint=eastwest;" parent="uWTmqrbJPEkyvDtqsmFR-1" vertex="1">
                    <mxGeometry y="98" width="240" height="20" as="geometry"/>
                </mxCell>
                <mxCell id="SvuZKTJshPVxK4Rx8Jqe-11" style="edgeStyle=none;html=1;exitX=0.505;exitY=1.15;exitDx=0;exitDy=0;entryX=0.128;entryY=0.034;entryDx=0;entryDy=0;endArrow=none;endFill=0;exitPerimeter=0;entryPerimeter=0;" parent="1" source="MPmLcns9lyvTpOZ_pZNS-3" target="MPmLcns9lyvTpOZ_pZNS-4" edge="1">
                    <mxGeometry relative="1" as="geometry"/>
                </mxCell>
                <mxCell id="SvuZKTJshPVxK4Rx8Jqe-19" style="edgeStyle=none;html=1;exitX=0.5;exitY=0;exitDx=0;exitDy=0;endArrow=block;endFill=0;dashed=1;endSize=12;" parent="1" source="MPmLcns9lyvTpOZ_pZNS-1" edge="1">
                    <mxGeometry relative="1" as="geometry">
                        <mxPoint x="450" y="140" as="targetPoint"/>
                    </mxGeometry>
                </mxCell>
                <mxCell id="MPmLcns9lyvTpOZ_pZNS-1" value="LatestPostsLoader" style="swimlane;fontStyle=0;align=center;verticalAlign=top;childLayout=stackLayout;horizontal=1;startSize=30;horizontalStack=0;resizeParent=1;resizeParentMax=0;resizeLast=0;collapsible=0;marginBottom=0;html=1;" parent="1" vertex="1">
                    <mxGeometry x="290" y="210" width="190" height="58" as="geometry"/>
                </mxCell>
                <mxCell id="MPmLcns9lyvTpOZ_pZNS-2" value="" style="line;strokeWidth=1;fillColor=none;align=left;verticalAlign=middle;spacingTop=-1;spacingLeft=3;spacingRight=3;rotatable=0;labelPosition=right;points=[];portConstraint=eastwest;" parent="MPmLcns9lyvTpOZ_pZNS-1" vertex="1">
                    <mxGeometry y="30" width="190" height="8" as="geometry"/>
                </mxCell>
                <mxCell id="MPmLcns9lyvTpOZ_pZNS-3" value="+ getLatestPosts : PostContet[]" style="text;html=1;strokeColor=none;fillColor=none;align=left;verticalAlign=middle;spacingLeft=4;spacingRight=4;overflow=hidden;rotatable=0;points=[[0,0.5],[1,0.5]];portConstraint=eastwest;" parent="MPmLcns9lyvTpOZ_pZNS-1" vertex="1">
                    <mxGeometry y="38" width="190" height="20" as="geometry"/>
                </mxCell>
                <mxCell id="MPmLcns9lyvTpOZ_pZNS-4" value="IPostsFetcher" style="swimlane;fontStyle=0;align=center;verticalAlign=top;childLayout=stackLayout;horizontal=1;startSize=30;horizontalStack=0;resizeParent=1;resizeParentMax=0;resizeLast=0;collapsible=0;marginBottom=0;html=1;" parent="1" vertex="1">
                    <mxGeometry x="340" y="320" width="360" height="58" as="geometry"/>
                </mxCell>
                <mxCell id="MPmLcns9lyvTpOZ_pZNS-5" value="" style="line;strokeWidth=1;fillColor=none;align=left;verticalAlign=middle;spacingTop=-1;spacingLeft=3;spacingRight=3;rotatable=0;labelPosition=right;points=[];portConstraint=eastwest;" parent="MPmLcns9lyvTpOZ_pZNS-4" vertex="1">
                    <mxGeometry y="30" width="360" height="8" as="geometry"/>
                </mxCell>
                <mxCell id="MPmLcns9lyvTpOZ_pZNS-7" value="+ getPosts(postId = undefined, numberOfPosts) : PostContent[]" style="text;html=1;strokeColor=none;fillColor=none;align=left;verticalAlign=middle;spacingLeft=4;spacingRight=4;overflow=hidden;rotatable=0;points=[[0,0.5],[1,0.5]];portConstraint=eastwest;" parent="MPmLcns9lyvTpOZ_pZNS-4" vertex="1">
                    <mxGeometry y="38" width="360" height="20" as="geometry"/>
                </mxCell>
                <mxCell id="keVPSXdd-8TYcLccc5A0-1" style="edgeStyle=none;html=1;exitX=0;exitY=0.5;exitDx=0;exitDy=0;entryX=1;entryY=0.5;entryDx=0;entryDy=0;endArrow=block;endFill=0;dashed=1;endSize=12;" parent="1" source="0f57etY8NrwFXthl4ijK-1" target="MPmLcns9lyvTpOZ_pZNS-4" edge="1">
                    <mxGeometry relative="1" as="geometry"/>
                </mxCell>
                <mxCell id="xF_jOSwDHNY_vJuBjl4E-2" style="edgeStyle=none;html=1;exitX=1;exitY=0.5;exitDx=0;exitDy=0;entryX=0;entryY=0.5;entryDx=0;entryDy=0;endArrow=none;endFill=0;endSize=12;" parent="1" source="0f57etY8NrwFXthl4ijK-1" target="gje3PmB3S2ELOlQO-4kU-1" edge="1">
                    <mxGeometry relative="1" as="geometry"/>
                </mxCell>
                <mxCell id="0f57etY8NrwFXthl4ijK-1" value="PostsFetcher" style="swimlane;fontStyle=0;align=center;verticalAlign=top;childLayout=stackLayout;horizontal=1;startSize=30;horizontalStack=0;resizeParent=1;resizeParentMax=0;resizeLast=0;collapsible=0;marginBottom=0;html=1;" parent="1" vertex="1">
                    <mxGeometry x="770" y="320" width="360" height="58" as="geometry"/>
                </mxCell>
                <mxCell id="0f57etY8NrwFXthl4ijK-2" value="" style="line;strokeWidth=1;fillColor=none;align=left;verticalAlign=middle;spacingTop=-1;spacingLeft=3;spacingRight=3;rotatable=0;labelPosition=right;points=[];portConstraint=eastwest;" parent="0f57etY8NrwFXthl4ijK-1" vertex="1">
                    <mxGeometry y="30" width="360" height="8" as="geometry"/>
                </mxCell>
                <mxCell id="0f57etY8NrwFXthl4ijK-3" value="+ getPosts(postId = undefined, numberOfPosts) : PostContent[]" style="text;html=1;strokeColor=none;fillColor=none;align=left;verticalAlign=middle;spacingLeft=4;spacingRight=4;overflow=hidden;rotatable=0;points=[[0,0.5],[1,0.5]];portConstraint=eastwest;" parent="0f57etY8NrwFXthl4ijK-1" vertex="1">
                    <mxGeometry y="38" width="360" height="20" as="geometry"/>
                </mxCell>
                <mxCell id="gje3PmB3S2ELOlQO-4kU-1" value="IPostContentRepository" style="swimlane;fontStyle=0;align=center;verticalAlign=top;childLayout=stackLayout;horizontal=1;startSize=30;horizontalStack=0;resizeParent=1;resizeParentMax=0;resizeLast=0;collapsible=0;marginBottom=0;html=1;" parent="1" vertex="1">
                    <mxGeometry x="1280" y="400" width="160" height="98" as="geometry"/>
                </mxCell>
                <mxCell id="gje3PmB3S2ELOlQO-4kU-2" value="" style="line;strokeWidth=1;fillColor=none;align=left;verticalAlign=middle;spacingTop=-1;spacingLeft=3;spacingRight=3;rotatable=0;labelPosition=right;points=[];portConstraint=eastwest;" parent="gje3PmB3S2ELOlQO-4kU-1" vertex="1">
                    <mxGeometry y="30" width="160" height="8" as="geometry"/>
                </mxCell>
                <mxCell id="lcG9Wd8NDoXSjcxtz1sA-5" value="+ create : postId" style="text;html=1;strokeColor=none;fillColor=none;align=left;verticalAlign=middle;spacingLeft=4;spacingRight=4;overflow=hidden;rotatable=0;points=[[0,0.5],[1,0.5]];portConstraint=eastwest;" parent="gje3PmB3S2ELOlQO-4kU-1" vertex="1">
                    <mxGeometry y="38" width="160" height="20" as="geometry"/>
                </mxCell>
                <mxCell id="gje3PmB3S2ELOlQO-4kU-6" value="+ getAll : PostContent[]" style="text;html=1;strokeColor=none;fillColor=none;align=left;verticalAlign=middle;spacingLeft=4;spacingRight=4;overflow=hidden;rotatable=0;points=[[0,0.5],[1,0.5]];portConstraint=eastwest;" parent="gje3PmB3S2ELOlQO-4kU-1" vertex="1">
                    <mxGeometry y="58" width="160" height="20" as="geometry"/>
                </mxCell>
                <mxCell id="lcG9Wd8NDoXSjcxtz1sA-4" value="+ get : PostContent" style="text;html=1;strokeColor=none;fillColor=none;align=left;verticalAlign=middle;spacingLeft=4;spacingRight=4;overflow=hidden;rotatable=0;points=[[0,0.5],[1,0.5]];portConstraint=eastwest;" parent="gje3PmB3S2ELOlQO-4kU-1" vertex="1">
                    <mxGeometry y="78" width="160" height="20" as="geometry"/>
                </mxCell>
                <mxCell id="6Yy1jdHF5FyPTOpJaWi1-1" value="PostContent" style="swimlane;fontStyle=0;align=center;verticalAlign=top;childLayout=stackLayout;horizontal=1;startSize=30;horizontalStack=0;resizeParent=1;resizeParentMax=0;resizeLast=0;collapsible=0;marginBottom=0;html=1;" parent="1" vertex="1">
                    <mxGeometry x="1290" y="560" width="140" height="178" as="geometry"/>
                </mxCell>
                <mxCell id="6Yy1jdHF5FyPTOpJaWi1-2" value="" style="line;strokeWidth=1;fillColor=none;align=left;verticalAlign=middle;spacingTop=-1;spacingLeft=3;spacingRight=3;rotatable=0;labelPosition=right;points=[];portConstraint=eastwest;" parent="6Yy1jdHF5FyPTOpJaWi1-1" vertex="1">
                    <mxGeometry y="30" width="140" height="8" as="geometry"/>
                </mxCell>
                <mxCell id="SvuZKTJshPVxK4Rx8Jqe-40" value="+ posterId" style="text;html=1;strokeColor=none;fillColor=none;align=left;verticalAlign=middle;spacingLeft=4;spacingRight=4;overflow=hidden;rotatable=0;points=[[0,0.5],[1,0.5]];portConstraint=eastwest;" parent="6Yy1jdHF5FyPTOpJaWi1-1" vertex="1">
                    <mxGeometry y="38" width="140" height="20" as="geometry"/>
                </mxCell>
                <mxCell id="SvuZKTJshPVxK4Rx8Jqe-2" value="+ posterName" style="text;html=1;strokeColor=none;fillColor=none;align=left;verticalAlign=middle;spacingLeft=4;spacingRight=4;overflow=hidden;rotatable=0;points=[[0,0.5],[1,0.5]];portConstraint=eastwest;" parent="6Yy1jdHF5FyPTOpJaWi1-1" vertex="1">
                    <mxGeometry y="58" width="140" height="20" as="geometry"/>
                </mxCell>
                <mxCell id="6Yy1jdHF5FyPTOpJaWi1-3" value="+&amp;nbsp;releaseId" style="text;html=1;strokeColor=none;fillColor=none;align=left;verticalAlign=middle;spacingLeft=4;spacingRight=4;overflow=hidden;rotatable=0;points=[[0,0.5],[1,0.5]];portConstraint=eastwest;" parent="6Yy1jdHF5FyPTOpJaWi1-1" vertex="1">
                    <mxGeometry y="78" width="140" height="20" as="geometry"/>
                </mxCell>
                <mxCell id="6y7PWFpTb1okDhXVaNra-9" value="+&amp;nbsp;releaseVersion" style="text;html=1;strokeColor=none;fillColor=none;align=left;verticalAlign=middle;spacingLeft=4;spacingRight=4;overflow=hidden;rotatable=0;points=[[0,0.5],[1,0.5]];portConstraint=eastwest;" parent="6Yy1jdHF5FyPTOpJaWi1-1" vertex="1">
                    <mxGeometry y="98" width="140" height="20" as="geometry"/>
                </mxCell>
                <mxCell id="SvuZKTJshPVxK4Rx8Jqe-1" value="+&amp;nbsp;releaseName" style="text;html=1;strokeColor=none;fillColor=none;align=left;verticalAlign=middle;spacingLeft=4;spacingRight=4;overflow=hidden;rotatable=0;points=[[0,0.5],[1,0.5]];portConstraint=eastwest;" parent="6Yy1jdHF5FyPTOpJaWi1-1" vertex="1">
                    <mxGeometry y="118" width="140" height="20" as="geometry"/>
                </mxCell>
                <mxCell id="6Yy1jdHF5FyPTOpJaWi1-4" value="+&amp;nbsp;tag" style="text;html=1;strokeColor=none;fillColor=none;align=left;verticalAlign=middle;spacingLeft=4;spacingRight=4;overflow=hidden;rotatable=0;points=[[0,0.5],[1,0.5]];portConstraint=eastwest;" parent="6Yy1jdHF5FyPTOpJaWi1-1" vertex="1">
                    <mxGeometry y="138" width="140" height="20" as="geometry"/>
                </mxCell>
                <mxCell id="NLzmOZh8kVtyBdNcRDIa-6" value="+&amp;nbsp;content" style="text;html=1;strokeColor=none;fillColor=none;align=left;verticalAlign=middle;spacingLeft=4;spacingRight=4;overflow=hidden;rotatable=0;points=[[0,0.5],[1,0.5]];portConstraint=eastwest;" parent="6Yy1jdHF5FyPTOpJaWi1-1" vertex="1">
                    <mxGeometry y="158" width="140" height="20" as="geometry"/>
                </mxCell>
                <mxCell id="NLzmOZh8kVtyBdNcRDIa-1" value="Entity" style="swimlane;fontStyle=0;align=center;verticalAlign=top;childLayout=stackLayout;horizontal=1;startSize=30;horizontalStack=0;resizeParent=1;resizeParentMax=0;resizeLast=0;collapsible=0;marginBottom=0;html=1;" parent="1" vertex="1">
                    <mxGeometry x="1290" y="800" width="140" height="38" as="geometry"/>
                </mxCell>
                <mxCell id="NLzmOZh8kVtyBdNcRDIa-2" value="" style="line;strokeWidth=1;fillColor=none;align=left;verticalAlign=middle;spacingTop=-1;spacingLeft=3;spacingRight=3;rotatable=0;labelPosition=right;points=[];portConstraint=eastwest;" parent="NLzmOZh8kVtyBdNcRDIa-1" vertex="1">
                    <mxGeometry y="30" width="140" height="8" as="geometry"/>
                </mxCell>
                <mxCell id="xF_jOSwDHNY_vJuBjl4E-1" style="edgeStyle=none;html=1;entryX=0.5;entryY=0;entryDx=0;entryDy=0;dashed=1;endArrow=open;endFill=0;endSize=12;exitX=0.5;exitY=1;exitDx=0;exitDy=0;exitPerimeter=0;" parent="1" source="lcG9Wd8NDoXSjcxtz1sA-4" target="6Yy1jdHF5FyPTOpJaWi1-1" edge="1">
                    <mxGeometry relative="1" as="geometry">
                        <mxPoint x="1360" y="510" as="sourcePoint"/>
                    </mxGeometry>
                </mxCell>
                <mxCell id="0UGbqEELVLvl4mnTt-Ht-2" style="edgeStyle=none;html=1;exitX=0;exitY=0.5;exitDx=0;exitDy=0;entryX=1;entryY=0.5;entryDx=0;entryDy=0;endArrow=block;endFill=0;endSize=12;dashed=1;" parent="1" source="xF_jOSwDHNY_vJuBjl4E-3" target="gje3PmB3S2ELOlQO-4kU-1" edge="1">
                    <mxGeometry relative="1" as="geometry"/>
                </mxCell>
                <mxCell id="xF_jOSwDHNY_vJuBjl4E-3" value="PostgresPostContentRepository" style="swimlane;fontStyle=0;align=center;verticalAlign=top;childLayout=stackLayout;horizontal=1;startSize=30;horizontalStack=0;resizeParent=1;resizeParentMax=0;resizeLast=0;collapsible=0;marginBottom=0;html=1;" parent="1" vertex="1">
                    <mxGeometry x="1520" y="400" width="200" height="98" as="geometry"/>
                </mxCell>
                <mxCell id="xF_jOSwDHNY_vJuBjl4E-4" value="" style="line;strokeWidth=1;fillColor=none;align=left;verticalAlign=middle;spacingTop=-1;spacingLeft=3;spacingRight=3;rotatable=0;labelPosition=right;points=[];portConstraint=eastwest;" parent="xF_jOSwDHNY_vJuBjl4E-3" vertex="1">
                    <mxGeometry y="30" width="200" height="8" as="geometry"/>
                </mxCell>
                <mxCell id="lcG9Wd8NDoXSjcxtz1sA-6" value="+ create : postId" style="text;html=1;strokeColor=none;fillColor=none;align=left;verticalAlign=middle;spacingLeft=4;spacingRight=4;overflow=hidden;rotatable=0;points=[[0,0.5],[1,0.5]];portConstraint=eastwest;" parent="xF_jOSwDHNY_vJuBjl4E-3" vertex="1">
                    <mxGeometry y="38" width="200" height="20" as="geometry"/>
                </mxCell>
                <mxCell id="lcG9Wd8NDoXSjcxtz1sA-8" value="+ get : PostContent" style="text;html=1;strokeColor=none;fillColor=none;align=left;verticalAlign=middle;spacingLeft=4;spacingRight=4;overflow=hidden;rotatable=0;points=[[0,0.5],[1,0.5]];portConstraint=eastwest;" parent="xF_jOSwDHNY_vJuBjl4E-3" vertex="1">
                    <mxGeometry y="58" width="200" height="20" as="geometry"/>
                </mxCell>
                <mxCell id="lcG9Wd8NDoXSjcxtz1sA-7" value="+ getAll : PostContent[]" style="text;html=1;strokeColor=none;fillColor=none;align=left;verticalAlign=middle;spacingLeft=4;spacingRight=4;overflow=hidden;rotatable=0;points=[[0,0.5],[1,0.5]];portConstraint=eastwest;" parent="xF_jOSwDHNY_vJuBjl4E-3" vertex="1">
                    <mxGeometry y="78" width="200" height="20" as="geometry"/>
                </mxCell>
                <mxCell id="SvuZKTJshPVxK4Rx8Jqe-12" style="edgeStyle=none;html=1;exitX=1;exitY=0.5;exitDx=0;exitDy=0;entryX=0;entryY=0.5;entryDx=0;entryDy=0;endArrow=none;endFill=0;" parent="1" source="SvuZKTJshPVxK4Rx8Jqe-3" target="MPmLcns9lyvTpOZ_pZNS-4" edge="1">
                    <mxGeometry relative="1" as="geometry"/>
                </mxCell>
                <mxCell id="SvuZKTJshPVxK4Rx8Jqe-3" value="PriorPostsLoader" style="swimlane;fontStyle=0;align=center;verticalAlign=top;childLayout=stackLayout;horizontal=1;startSize=30;horizontalStack=0;resizeParent=1;resizeParentMax=0;resizeLast=0;collapsible=0;marginBottom=0;html=1;" parent="1" vertex="1">
                    <mxGeometry x="80" y="320" width="200" height="58" as="geometry"/>
                </mxCell>
                <mxCell id="SvuZKTJshPVxK4Rx8Jqe-4" value="" style="line;strokeWidth=1;fillColor=none;align=left;verticalAlign=middle;spacingTop=-1;spacingLeft=3;spacingRight=3;rotatable=0;labelPosition=right;points=[];portConstraint=eastwest;" parent="SvuZKTJshPVxK4Rx8Jqe-3" vertex="1">
                    <mxGeometry y="30" width="200" height="8" as="geometry"/>
                </mxCell>
                <mxCell id="SvuZKTJshPVxK4Rx8Jqe-5" value="+ getPreviousPosts : PostContet[]" style="text;html=1;strokeColor=none;fillColor=none;align=left;verticalAlign=middle;spacingLeft=4;spacingRight=4;overflow=hidden;rotatable=0;points=[[0,0.5],[1,0.5]];portConstraint=eastwest;" parent="SvuZKTJshPVxK4Rx8Jqe-3" vertex="1">
                    <mxGeometry y="38" width="200" height="20" as="geometry"/>
                </mxCell>
                <mxCell id="SvuZKTJshPVxK4Rx8Jqe-9" style="edgeStyle=none;html=1;endArrow=none;endFill=0;exitX=0.437;exitY=1.25;exitDx=0;exitDy=0;exitPerimeter=0;" parent="1" source="SvuZKTJshPVxK4Rx8Jqe-8" edge="1">
                    <mxGeometry relative="1" as="geometry">
                        <mxPoint x="643" y="260" as="sourcePoint"/>
                        <mxPoint x="643" y="320" as="targetPoint"/>
                    </mxGeometry>
                </mxCell>
                <mxCell id="SvuZKTJshPVxK4Rx8Jqe-20" style="edgeStyle=none;html=1;exitX=0.5;exitY=0;exitDx=0;exitDy=0;endArrow=block;endFill=0;dashed=1;endSize=12;" parent="1" source="SvuZKTJshPVxK4Rx8Jqe-6" edge="1">
                    <mxGeometry relative="1" as="geometry">
                        <mxPoint x="590" y="140" as="targetPoint"/>
                    </mxGeometry>
                </mxCell>
                <mxCell id="SvuZKTJshPVxK4Rx8Jqe-6" value="AfterPostPostsLoader" style="swimlane;fontStyle=0;align=center;verticalAlign=top;childLayout=stackLayout;horizontal=1;startSize=30;horizontalStack=0;resizeParent=1;resizeParentMax=0;resizeLast=0;collapsible=0;marginBottom=0;html=1;" parent="1" vertex="1">
                    <mxGeometry x="560" y="210" width="190" height="58" as="geometry"/>
                </mxCell>
                <mxCell id="SvuZKTJshPVxK4Rx8Jqe-7" value="" style="line;strokeWidth=1;fillColor=none;align=left;verticalAlign=middle;spacingTop=-1;spacingLeft=3;spacingRight=3;rotatable=0;labelPosition=right;points=[];portConstraint=eastwest;" parent="SvuZKTJshPVxK4Rx8Jqe-6" vertex="1">
                    <mxGeometry y="30" width="190" height="8" as="geometry"/>
                </mxCell>
                <mxCell id="SvuZKTJshPVxK4Rx8Jqe-8" value="+ getPostsAfterId : PostContet[]" style="text;html=1;strokeColor=none;fillColor=none;align=left;verticalAlign=middle;spacingLeft=4;spacingRight=4;overflow=hidden;rotatable=0;points=[[0,0.5],[1,0.5]];portConstraint=eastwest;" parent="SvuZKTJshPVxK4Rx8Jqe-6" vertex="1">
                    <mxGeometry y="38" width="190" height="20" as="geometry"/>
                </mxCell>
                <mxCell id="SvuZKTJshPVxK4Rx8Jqe-13" value="PostFetchLimit" style="swimlane;fontStyle=0;align=center;verticalAlign=top;childLayout=stackLayout;horizontal=1;startSize=30;horizontalStack=0;resizeParent=1;resizeParentMax=0;resizeLast=0;collapsible=0;marginBottom=0;html=1;" parent="1" vertex="1">
                    <mxGeometry x="450" y="80" width="140" height="58" as="geometry"/>
                </mxCell>
                <mxCell id="SvuZKTJshPVxK4Rx8Jqe-14" value="" style="line;strokeWidth=1;fillColor=none;align=left;verticalAlign=middle;spacingTop=-1;spacingLeft=3;spacingRight=3;rotatable=0;labelPosition=right;points=[];portConstraint=eastwest;" parent="SvuZKTJshPVxK4Rx8Jqe-13" vertex="1">
                    <mxGeometry y="30" width="140" height="8" as="geometry"/>
                </mxCell>
                <mxCell id="SvuZKTJshPVxK4Rx8Jqe-15" value="+&amp;nbsp;postsLimit" style="text;html=1;strokeColor=none;fillColor=none;align=left;verticalAlign=middle;spacingLeft=4;spacingRight=4;overflow=hidden;rotatable=0;points=[[0,0.5],[1,0.5]];portConstraint=eastwest;" parent="SvuZKTJshPVxK4Rx8Jqe-13" vertex="1">
                    <mxGeometry y="38" width="140" height="20" as="geometry"/>
                </mxCell>
                <mxCell id="SvuZKTJshPVxK4Rx8Jqe-27" value="IReleaseInformationRepository" style="swimlane;fontStyle=0;align=center;verticalAlign=top;childLayout=stackLayout;horizontal=1;startSize=30;horizontalStack=0;resizeParent=1;resizeParentMax=0;resizeLast=0;collapsible=0;marginBottom=0;html=1;" parent="1" vertex="1">
                    <mxGeometry x="1160" y="920" width="180" height="58" as="geometry"/>
                </mxCell>
                <mxCell id="SvuZKTJshPVxK4Rx8Jqe-28" value="" style="line;strokeWidth=1;fillColor=none;align=left;verticalAlign=middle;spacingTop=-1;spacingLeft=3;spacingRight=3;rotatable=0;labelPosition=right;points=[];portConstraint=eastwest;" parent="SvuZKTJshPVxK4Rx8Jqe-27" vertex="1">
                    <mxGeometry y="30" width="180" height="8" as="geometry"/>
                </mxCell>
                <mxCell id="SvuZKTJshPVxK4Rx8Jqe-29" value="+ get : ReleaseInformation" style="text;html=1;strokeColor=none;fillColor=none;align=left;verticalAlign=middle;spacingLeft=4;spacingRight=4;overflow=hidden;rotatable=0;points=[[0,0.5],[1,0.5]];portConstraint=eastwest;" parent="SvuZKTJshPVxK4Rx8Jqe-27" vertex="1">
                    <mxGeometry y="38" width="180" height="20" as="geometry"/>
                </mxCell>
                <mxCell id="SvuZKTJshPVxK4Rx8Jqe-30" value="ReleaseInformation" style="swimlane;fontStyle=0;align=center;verticalAlign=top;childLayout=stackLayout;horizontal=1;startSize=30;horizontalStack=0;resizeParent=1;resizeParentMax=0;resizeLast=0;collapsible=0;marginBottom=0;html=1;" parent="1" vertex="1">
                    <mxGeometry x="1180" y="1040" width="140" height="98" as="geometry"/>
                </mxCell>
                <mxCell id="SvuZKTJshPVxK4Rx8Jqe-31" value="" style="line;strokeWidth=1;fillColor=none;align=left;verticalAlign=middle;spacingTop=-1;spacingLeft=3;spacingRight=3;rotatable=0;labelPosition=right;points=[];portConstraint=eastwest;" parent="SvuZKTJshPVxK4Rx8Jqe-30" vertex="1">
                    <mxGeometry y="30" width="140" height="8" as="geometry"/>
                </mxCell>
                <mxCell id="SvuZKTJshPVxK4Rx8Jqe-33" value="+&amp;nbsp;releaseId" style="text;html=1;strokeColor=none;fillColor=none;align=left;verticalAlign=middle;spacingLeft=4;spacingRight=4;overflow=hidden;rotatable=0;points=[[0,0.5],[1,0.5]];portConstraint=eastwest;" parent="SvuZKTJshPVxK4Rx8Jqe-30" vertex="1">
                    <mxGeometry y="38" width="140" height="20" as="geometry"/>
                </mxCell>
                <mxCell id="oGvQigIfRizLqoYMd8rv-1" value="+&amp;nbsp;releaseVersion" style="text;html=1;strokeColor=none;fillColor=none;align=left;verticalAlign=middle;spacingLeft=4;spacingRight=4;overflow=hidden;rotatable=0;points=[[0,0.5],[1,0.5]];portConstraint=eastwest;" parent="SvuZKTJshPVxK4Rx8Jqe-30" vertex="1">
                    <mxGeometry y="58" width="140" height="20" as="geometry"/>
                </mxCell>
                <mxCell id="SvuZKTJshPVxK4Rx8Jqe-34" value="+&amp;nbsp;releaseName" style="text;html=1;strokeColor=none;fillColor=none;align=left;verticalAlign=middle;spacingLeft=4;spacingRight=4;overflow=hidden;rotatable=0;points=[[0,0.5],[1,0.5]];portConstraint=eastwest;" parent="SvuZKTJshPVxK4Rx8Jqe-30" vertex="1">
                    <mxGeometry y="78" width="140" height="20" as="geometry"/>
                </mxCell>
                <mxCell id="RtJPFJvI0ejVj8OZVuEd-1" style="edgeStyle=none;html=1;exitX=0.5;exitY=0;exitDx=0;exitDy=0;entryX=0.5;entryY=1.1;entryDx=0;entryDy=0;entryPerimeter=0;dashed=1;endArrow=block;endFill=0;endSize=12;strokeWidth=1;" parent="1" source="SvuZKTJshPVxK4Rx8Jqe-38" target="SvuZKTJshPVxK4Rx8Jqe-34" edge="1">
                    <mxGeometry relative="1" as="geometry"/>
                </mxCell>
                <mxCell id="SvuZKTJshPVxK4Rx8Jqe-38" value="Entity" style="swimlane;fontStyle=0;align=center;verticalAlign=top;childLayout=stackLayout;horizontal=1;startSize=30;horizontalStack=0;resizeParent=1;resizeParentMax=0;resizeLast=0;collapsible=0;marginBottom=0;html=1;" parent="1" vertex="1">
                    <mxGeometry x="1180" y="1200" width="140" height="38" as="geometry"/>
                </mxCell>
                <mxCell id="SvuZKTJshPVxK4Rx8Jqe-39" value="" style="line;strokeWidth=1;fillColor=none;align=left;verticalAlign=middle;spacingTop=-1;spacingLeft=3;spacingRight=3;rotatable=0;labelPosition=right;points=[];portConstraint=eastwest;" parent="SvuZKTJshPVxK4Rx8Jqe-38" vertex="1">
                    <mxGeometry y="30" width="140" height="8" as="geometry"/>
                </mxCell>
                <mxCell id="RtJPFJvI0ejVj8OZVuEd-2" style="edgeStyle=none;html=1;entryX=0.5;entryY=0;entryDx=0;entryDy=0;dashed=1;strokeWidth=1;endArrow=open;endFill=0;endSize=12;" parent="1" source="SvuZKTJshPVxK4Rx8Jqe-29" target="SvuZKTJshPVxK4Rx8Jqe-30" edge="1">
                    <mxGeometry relative="1" as="geometry">
                        <mxPoint x="1250" y="980" as="sourcePoint"/>
                    </mxGeometry>
                </mxCell>
                <mxCell id="lcG9Wd8NDoXSjcxtz1sA-9" style="edgeStyle=none;html=1;exitX=1;exitY=0.5;exitDx=0;exitDy=0;entryX=0;entryY=0.5;entryDx=0;entryDy=0;endArrow=none;endFill=0;endSize=12;" parent="1" source="6y7PWFpTb1okDhXVaNra-3" target="lcG9Wd8NDoXSjcxtz1sA-1" edge="1">
                    <mxGeometry relative="1" as="geometry"/>
                </mxCell>
                <mxCell id="6y7PWFpTb1okDhXVaNra-3" value="PostMessageAction" style="swimlane;fontStyle=0;align=center;verticalAlign=top;childLayout=stackLayout;horizontal=1;startSize=30;horizontalStack=0;resizeParent=1;resizeParentMax=0;resizeLast=0;collapsible=0;marginBottom=0;html=1;" parent="1" vertex="1">
                    <mxGeometry x="80" y="490" width="240" height="58" as="geometry"/>
                </mxCell>
                <mxCell id="6y7PWFpTb1okDhXVaNra-4" value="" style="line;strokeWidth=1;fillColor=none;align=left;verticalAlign=middle;spacingTop=-1;spacingLeft=3;spacingRight=3;rotatable=0;labelPosition=right;points=[];portConstraint=eastwest;" parent="6y7PWFpTb1okDhXVaNra-3" vertex="1">
                    <mxGeometry y="30" width="240" height="8" as="geometry"/>
                </mxCell>
                <mxCell id="6y7PWFpTb1okDhXVaNra-5" value="+ post(userId, releaseId, content) : postId" style="text;html=1;strokeColor=none;fillColor=none;align=left;verticalAlign=middle;spacingLeft=4;spacingRight=4;overflow=hidden;rotatable=0;points=[[0,0.5],[1,0.5]];portConstraint=eastwest;" parent="6y7PWFpTb1okDhXVaNra-3" vertex="1">
                    <mxGeometry y="38" width="240" height="20" as="geometry"/>
                </mxCell>
                <mxCell id="jteWulHI7zGx4C5N-e0n-4" style="edgeStyle=none;html=1;exitX=1;exitY=0.5;exitDx=0;exitDy=0;entryX=0;entryY=0.5;entryDx=0;entryDy=0;endArrow=none;endFill=0;" parent="1" source="oGvQigIfRizLqoYMd8rv-2" target="oGvQigIfRizLqoYMd8rv-5" edge="1">
                    <mxGeometry relative="1" as="geometry"/>
                </mxCell>
                <mxCell id="oGvQigIfRizLqoYMd8rv-2" value="ReleaseInformationListLoader" style="swimlane;fontStyle=0;align=center;verticalAlign=top;childLayout=stackLayout;horizontal=1;startSize=30;horizontalStack=0;resizeParent=1;resizeParentMax=0;resizeLast=0;collapsible=0;marginBottom=0;html=1;" parent="1" vertex="1">
                    <mxGeometry x="80" y="920" width="290" height="58" as="geometry"/>
                </mxCell>
                <mxCell id="oGvQigIfRizLqoYMd8rv-3" value="" style="line;strokeWidth=1;fillColor=none;align=left;verticalAlign=middle;spacingTop=-1;spacingLeft=3;spacingRight=3;rotatable=0;labelPosition=right;points=[];portConstraint=eastwest;" parent="oGvQigIfRizLqoYMd8rv-2" vertex="1">
                    <mxGeometry y="30" width="290" height="8" as="geometry"/>
                </mxCell>
                <mxCell id="oGvQigIfRizLqoYMd8rv-4" value="+ getReleaseInformationList : ReleaseInformation[]" style="text;html=1;strokeColor=none;fillColor=none;align=left;verticalAlign=middle;spacingLeft=4;spacingRight=4;overflow=hidden;rotatable=0;points=[[0,0.5],[1,0.5]];portConstraint=eastwest;" parent="oGvQigIfRizLqoYMd8rv-2" vertex="1">
                    <mxGeometry y="38" width="290" height="20" as="geometry"/>
                </mxCell>
                <mxCell id="oGvQigIfRizLqoYMd8rv-5" value="IReleaseInformationListGetter" style="swimlane;fontStyle=0;align=center;verticalAlign=top;childLayout=stackLayout;horizontal=1;startSize=30;horizontalStack=0;resizeParent=1;resizeParentMax=0;resizeLast=0;collapsible=0;marginBottom=0;html=1;" parent="1" vertex="1">
                    <mxGeometry x="440" y="920" width="290" height="58" as="geometry"/>
                </mxCell>
                <mxCell id="oGvQigIfRizLqoYMd8rv-6" value="" style="line;strokeWidth=1;fillColor=none;align=left;verticalAlign=middle;spacingTop=-1;spacingLeft=3;spacingRight=3;rotatable=0;labelPosition=right;points=[];portConstraint=eastwest;" parent="oGvQigIfRizLqoYMd8rv-5" vertex="1">
                    <mxGeometry y="30" width="290" height="8" as="geometry"/>
                </mxCell>
                <mxCell id="oGvQigIfRizLqoYMd8rv-7" value="+ getReleaseInformationList : ReleaseInformation[]" style="text;html=1;strokeColor=none;fillColor=none;align=left;verticalAlign=middle;spacingLeft=4;spacingRight=4;overflow=hidden;rotatable=0;points=[[0,0.5],[1,0.5]];portConstraint=eastwest;" parent="oGvQigIfRizLqoYMd8rv-5" vertex="1">
                    <mxGeometry y="38" width="290" height="20" as="geometry"/>
                </mxCell>
                <mxCell id="jteWulHI7zGx4C5N-e0n-5" style="edgeStyle=none;html=1;exitX=0;exitY=0.5;exitDx=0;exitDy=0;entryX=1;entryY=0.5;entryDx=0;entryDy=0;endArrow=block;endFill=0;endSize=12;dashed=1;" parent="1" source="jteWulHI7zGx4C5N-e0n-1" target="oGvQigIfRizLqoYMd8rv-5" edge="1">
                    <mxGeometry relative="1" as="geometry"/>
                </mxCell>
                <mxCell id="jteWulHI7zGx4C5N-e0n-6" style="edgeStyle=none;html=1;exitX=1;exitY=0.5;exitDx=0;exitDy=0;entryX=0;entryY=0.5;entryDx=0;entryDy=0;endArrow=none;endFill=0;endSize=12;" parent="1" source="jteWulHI7zGx4C5N-e0n-1" target="SvuZKTJshPVxK4Rx8Jqe-27" edge="1">
                    <mxGeometry relative="1" as="geometry"/>
                </mxCell>
                <mxCell id="jteWulHI7zGx4C5N-e0n-1" value="ReleaseInformationListGetter" style="swimlane;fontStyle=0;align=center;verticalAlign=top;childLayout=stackLayout;horizontal=1;startSize=30;horizontalStack=0;resizeParent=1;resizeParentMax=0;resizeLast=0;collapsible=0;marginBottom=0;html=1;" parent="1" vertex="1">
                    <mxGeometry x="800" y="920" width="290" height="58" as="geometry"/>
                </mxCell>
                <mxCell id="jteWulHI7zGx4C5N-e0n-2" value="" style="line;strokeWidth=1;fillColor=none;align=left;verticalAlign=middle;spacingTop=-1;spacingLeft=3;spacingRight=3;rotatable=0;labelPosition=right;points=[];portConstraint=eastwest;" parent="jteWulHI7zGx4C5N-e0n-1" vertex="1">
                    <mxGeometry y="30" width="290" height="8" as="geometry"/>
                </mxCell>
                <mxCell id="jteWulHI7zGx4C5N-e0n-3" value="+ getReleaseInformationList : ReleaseInformation[]" style="text;html=1;strokeColor=none;fillColor=none;align=left;verticalAlign=middle;spacingLeft=4;spacingRight=4;overflow=hidden;rotatable=0;points=[[0,0.5],[1,0.5]];portConstraint=eastwest;" parent="jteWulHI7zGx4C5N-e0n-1" vertex="1">
                    <mxGeometry y="38" width="290" height="20" as="geometry"/>
                </mxCell>
                <mxCell id="lcG9Wd8NDoXSjcxtz1sA-1" value="IPostCreator" style="swimlane;fontStyle=0;align=center;verticalAlign=top;childLayout=stackLayout;horizontal=1;startSize=30;horizontalStack=0;resizeParent=1;resizeParentMax=0;resizeLast=0;collapsible=0;marginBottom=0;html=1;" parent="1" vertex="1">
                    <mxGeometry x="400" y="490" width="240" height="58" as="geometry"/>
                </mxCell>
                <mxCell id="lcG9Wd8NDoXSjcxtz1sA-2" value="" style="line;strokeWidth=1;fillColor=none;align=left;verticalAlign=middle;spacingTop=-1;spacingLeft=3;spacingRight=3;rotatable=0;labelPosition=right;points=[];portConstraint=eastwest;" parent="lcG9Wd8NDoXSjcxtz1sA-1" vertex="1">
                    <mxGeometry y="30" width="240" height="8" as="geometry"/>
                </mxCell>
                <mxCell id="lcG9Wd8NDoXSjcxtz1sA-3" value="+ post(userId, releaseId, content) : postId" style="text;html=1;strokeColor=none;fillColor=none;align=left;verticalAlign=middle;spacingLeft=4;spacingRight=4;overflow=hidden;rotatable=0;points=[[0,0.5],[1,0.5]];portConstraint=eastwest;" parent="lcG9Wd8NDoXSjcxtz1sA-1" vertex="1">
                    <mxGeometry y="38" width="240" height="20" as="geometry"/>
                </mxCell>
                <mxCell id="lcG9Wd8NDoXSjcxtz1sA-11" style="edgeStyle=none;html=1;exitX=0;exitY=0.5;exitDx=0;exitDy=0;entryX=0.996;entryY=0;entryDx=0;entryDy=0;entryPerimeter=0;endArrow=block;endFill=0;endSize=12;dashed=1;" parent="1" source="uWTmqrbJPEkyvDtqsmFR-10" target="lcG9Wd8NDoXSjcxtz1sA-3" edge="1">
                    <mxGeometry relative="1" as="geometry"/>
                </mxCell>
                <mxCell id="lcG9Wd8NDoXSjcxtz1sA-12" style="edgeStyle=none;html=1;exitX=1;exitY=0.5;exitDx=0;exitDy=0;entryX=0;entryY=0.5;entryDx=0;entryDy=0;endArrow=none;endFill=0;endSize=12;" parent="1" source="uWTmqrbJPEkyvDtqsmFR-10" target="lcG9Wd8NDoXSjcxtz1sA-5" edge="1">
                    <mxGeometry relative="1" as="geometry"/>
                </mxCell>
                <mxCell id="0iGpWXt7ZhmkvB-f6ZVX-1" style="edgeStyle=none;html=1;exitX=0.5;exitY=1.1;exitDx=0;exitDy=0;entryX=0.5;entryY=0;entryDx=0;entryDy=0;dashed=1;endArrow=block;endFill=0;endSize=12;exitPerimeter=0;" edge="1" parent="1" source="NLzmOZh8kVtyBdNcRDIa-6" target="NLzmOZh8kVtyBdNcRDIa-1">
                    <mxGeometry relative="1" as="geometry"/>
                </mxCell>
            </root>
        </mxGraphModel>
    </diagram>
</mxfile>